<?xml version="1.0" encoding="utf-8"?>
<!-- Generator: Adobe Illustrator 16.0.0, SVG Export Plug-In . SVG Version: 6.00 Build 0)  -->
<!DOCTYPE svg PUBLIC "-//W3C//DTD SVG 1.1//EN" "http://www.w3.org/Graphics/SVG/1.1/DTD/svg11.dtd">
<svg version="1.1" id="Layer_1" xmlns="http://www.w3.org/2000/svg" xmlns:xlink="http://www.w3.org/1999/xlink" x="0px" y="0px"
	 width="841.89px" height="370.913px" viewBox="0 0 841.89 370.913" enable-background="new 0 0 841.89 370.913"
	 xml:space="preserve">
<g>
	<g>
		<path fill="#004B93" d="M196.448,235.142c-21.917,0-36.075,15.498-36.075,39.484c0,23.897,14.158,39.339,36.075,39.339
			c22.005,0,36.222-15.441,36.222-39.339C232.67,250.64,218.453,235.142,196.448,235.142z M196.448,304.842
			c-15.815,0-25.263-11.291-25.263-30.216c0-19.013,9.447-30.363,25.263-30.363c15.909,0,25.411,11.351,25.411,30.363
			C221.859,293.551,212.357,304.842,196.448,304.842z"/>
		<path fill="#004B93" d="M287.756,235.712c-10.419,0-20.716,3.629-30.65,10.797v-0.783c0-5.699-0.375-9.163-5.619-9.163h-5.052
			v77.402h10.671v-57.137c10.382-7.792,19.533-11.569,27.957-11.569c9.192,0,12.938,3.699,12.938,12.798v55.908h10.673v-56.762
			C308.674,243.148,301.443,235.712,287.756,235.712z"/>
		<path fill="#004B93" d="M340.141,294.75v-49.784h19.689v-8.973h-19.689v-20.541h-10.677v20.541h-9.778v8.973h9.778v50.627
			c0,12.19,6.462,18.373,19.223,18.373c4.534,0,8.914-0.445,11.238-0.886l1.466-0.275v-8.245h-10.299
			C342.8,304.559,340.141,302.18,340.141,294.75z"/>
		<path fill="#004B93" d="M382.96,215.597c-3.586,0-6.609,3.027-6.609,6.612c0,3.71,2.902,6.612,6.609,6.612
			c3.705,0,6.612-2.902,6.612-6.612C389.572,218.625,386.548,215.597,382.96,215.597z"/>
		<path fill="#004B93" d="M381.542,236.563h-4.056v77.402h10.667v-67.95C388.153,239.3,387.558,236.563,381.542,236.563z"/>
		<path fill="#004B93" d="M447.563,235.712c-10.418,0-20.711,3.629-30.649,10.797v-0.783c0-5.699-0.372-9.163-5.615-9.163h-5.055
			v77.402h10.67v-57.137c10.384-7.792,19.534-11.569,27.958-11.569c9.191,0,12.941,3.699,12.941,12.798v55.908h10.67v-56.762
			C468.483,243.148,461.253,235.712,447.563,235.712z"/>
		<path fill="#004B93" d="M601.685,235.712c-10.422,0-20.717,3.629-30.648,10.797v-0.783c0-5.699-0.381-9.163-5.621-9.163h-5.057
			v77.402h10.678v-57.137c10.379-7.792,19.531-11.569,27.953-11.569c9.195,0,12.936,3.699,12.936,12.798v55.908h10.676v-56.762
			C622.601,243.148,615.368,235.712,601.685,235.712z"/>
		<path fill="#004B93" d="M653.521,294.75v-49.784h19.693v-8.973h-19.693v-20.541h-10.672v20.541h-9.771v8.973h9.771v50.627
			c0,12.19,6.469,18.373,19.221,18.373c4.537,0,8.918-0.445,11.236-0.886l1.467-0.275v-8.245h-10.299
			C656.183,304.559,653.521,302.18,653.521,294.75z"/>
		<path fill="#004B93" d="M763.825,211.205h-4.348v102.761h10.672v-94.161C770.149,213.694,769.581,211.205,763.825,211.205z"/>
		<path fill="#004B93" d="M736.067,241.474c-2.363-2.333-5.451-4.023-9.053-5.049c-3.494-0.997-7.51-1.429-11.834-1.429
			c-14.768,0.081-23.066,4.35-28.461,7.425c3.984,8.438,8.213,6.378,13.67,4.023c4.189-1.799,9.018-2.546,14.107-2.546
			c2.336,0,4.914,0.551,7.414,1.066c1.467,0.394,2.787,0.939,3.891,1.579c1.781,1.118,3.045,2.481,4.006,4.266
			c0.945,1.796,1.465,4.169,1.465,7.209v11.017c-5.578-1.237-11.209-1.796-17.607-1.796c-4.482,0-8.588,0.427-12.404,1.337
			c-2.785,0.686-5.305,1.628-7.732,2.864c-3.445,1.893-6.27,4.452-8.271,7.654c-1.984,3.283-2.994,7.139-2.994,11.637
			c0,3.653,0.646,7.061,1.857,9.958c1.914,4.317,5.197,7.732,9.268,9.925c4.143,2.238,8.988,3.351,14.467,3.351c0,0,0,0,0.021,0
			c6.305,0,11.309-1.169,15.59-3.167c2.928-1.437,5.473-3.167,7.807-5.251c0.051,1.012,0.127,1.83,0.248,2.6
			c0.109,0.845,0.32,1.602,0.705,2.287c0.254,0.508,0.582,1.015,1.027,1.404c0.676,0.545,1.455,0.92,2.244,1.104
			c0.807,0.216,1.734,0.281,2.703,0.281h3.738V257.56c0-4.009-0.658-7.433-1.924-10.408
			C739.062,244.932,737.737,243.038,736.067,241.474z M731.272,293.969c-2.715,3.132-5.578,5.803-8.936,7.639
			c-3.539,1.974-7.809,3.137-13.516,3.137c-2.314,0-4.475-0.262-6.455-0.823c-1.426-0.394-2.682-0.996-3.834-1.741
			c-1.652-1.072-2.984-2.532-3.973-4.479c-0.979-1.992-1.533-4.46-1.533-7.535c0-2.644,0.541-4.704,1.533-6.415
			c0.773-1.31,1.709-2.414,2.92-3.48c1.775-1.461,4.139-2.5,7.012-3.262c2.77-0.724,5.994-1.077,9.609-1.077
			c6.352,0,11.965,0.826,17.172,1.968V293.969z"/>
		<path fill="#004B93" d="M117.596,219.755c2.381,0,4.53,0.141,6.499,0.392c4.28,0.548,7.662,1.636,10.459,3.046
			c0.098,0.051,0.199,0.094,0.295,0.15c0.353,0.182,0.691,0.362,1.03,0.557c0.5,0.297,0.994,0.586,1.445,0.891
			c0.036,0.02,0.063,0.041,0.096,0.065c0.269,0.181,0.533,0.369,0.784,0.553c0.3,0.214,0.578,0.446,0.87,0.67
			c0.789,0.656,1.54,1.302,2.26,1.903c0.773,0.651,1.526,1.234,2.278,1.685c2.725,1.666,5.469,1.669,9.68-3.075
			c-1.323-1.917-2.725-3.563-4.148-5.014c-6.99-7.117-14.661-9.115-17.778-10.058c-0.021-0.008-0.046-0.013-0.064-0.019v0.006
			c-2.182-0.519-4.569-0.899-7.206-1.137c-2.132-0.189-4.416-0.306-6.925-0.306c-22.611,0-45.43,15.979-45.43,51.67
			c0,0.092,0.006,0.186,0.006,0.283c0,0.089-0.006,0.188-0.006,0.28c0,35.691,22.818,51.667,45.43,51.667
			c2.509,0,4.793-0.107,6.925-0.303c2.637-0.24,5.024-0.618,7.206-1.136l0,0c0.019,0,0.043-0.006,0.064-0.014
			c3.117-0.948,10.788-2.94,17.778-10.055c1.424-1.45,2.825-3.1,4.148-5.02c-4.211-4.744-6.955-4.738-9.68-3.075
			c-0.752,0.456-1.505,1.034-2.278,1.685c-0.72,0.603-1.471,1.245-2.26,1.903c-0.292,0.228-0.57,0.454-0.87,0.67
			c-0.251,0.184-0.516,0.37-0.784,0.551c-0.032,0.021-0.06,0.049-0.096,0.07c-0.451,0.303-0.945,0.594-1.445,0.886
			c-0.339,0.197-0.678,0.383-1.03,0.564c-0.096,0.057-0.197,0.104-0.295,0.153c-2.797,1.401-6.179,2.486-10.459,3.04
			c-1.969,0.254-4.118,0.392-6.499,0.392c-21.264,0-34.474-15.976-34.474-41.695c0-0.192,0.017-0.376,0.017-0.564
			c0-0.197-0.017-0.373-0.017-0.572C83.122,235.728,96.332,219.755,117.596,219.755z"/>
		<path fill="#004B93" d="M540.153,246.28c-2.846-3.791-6.49-6.602-10.762-8.534c-4.279-1.753-9.195-2.608-14.393-2.608
			c-4.977,0-9.602,0.926-13.83,2.768c-6.215,2.78-11.459,7.509-15.076,13.848c-3.574,6.291-5.559,14.092-5.559,23.042
			c0,5.794,0.758,11.188,2.338,16.003c2.348,7.165,6.477,12.946,12.258,16.926c5.701,3.947,13.068,6.086,21.662,6.086
			c0,0,0,0,0.018,0c6.891,0,12.477-1.123,17.031-2.74c7.307-2.749,11.049-6.116,12.854-8.084c-4.984-7.241-7.809-4.345-13.562-1.68
			c-3.367,1.674-9.83,3.078-15.639,3.078c-4.443,0-8.297-0.656-11.496-1.896c-2.436-0.904-4.553-2.162-6.367-3.767
			c-2.676-2.395-4.818-5.497-6.188-9.498c-1.271-3.543-1.982-7.755-2.117-12.666h55.574v-1.741c0-0.021,0-0.216,0-0.47
			c0.01-0.64,0.088-1.854,0.088-3.021c0-6.123-0.748-11.437-2.277-16.038C543.589,251.872,542.063,248.888,540.153,246.28z
			 M491.628,267.583c0.49-3.542,1.307-6.626,2.424-9.385c2.002-4.779,4.852-8.275,8.35-10.587c3.568-2.384,7.732-3.526,12.598-3.526
			c3.209,0,6.18,0.438,8.701,1.329c1.877,0.696,3.592,1.639,5.098,2.945c2.244,1.893,4.021,4.406,5.342,7.914
			c1.098,3.056,1.883,6.738,2.137,11.31H491.628z"/>
	</g>
	<g>
		<path fill="#004B93" d="M367.386,56.966h-19.639l-31.444,102.748h16.014l6.751-22.121h37.353l6.784,22.121h27.849l-31.174-92.317
			C377.032,58.953,375.433,56.966,367.386,56.966z M343.561,122.466l14.053-46.895l14.233,46.895H343.561z"/>
		<path fill="#004B93" d="M224.158,97.236l5.043-7.438c10.604-15.751,3.308-32.85-17.676-32.85h-44.796v102.797h43.198
			C247.915,159.745,259.293,115.506,224.158,97.236z M198.228,146.017h-7.308V70.339h13.204c6.358,0,11.843,5.246,11.843,11.582
			c0,2.231-0.416,4.314-2.593,7.44l-8.558,12.84c8.956,2.146,14.939,8.973,14.939,21.714
			C219.756,139.418,210.482,146.017,198.228,146.017z"/>
		<path fill="#004B93" d="M137.176,97.236l5.005-7.438c10.648-15.751,3.353-32.85-17.684-32.85h-1.536H79.758v102.797h43.203
			C160.911,159.745,172.395,115.506,137.176,97.236z M111.244,146.017h-7.245V70.339h13.141c6.365,0,11.896,5.246,11.896,11.582
			c0,2.231-0.41,4.314-2.623,7.44l-8.605,12.84c8.982,2.146,14.96,8.973,14.96,21.714
			C132.767,139.418,123.505,146.017,111.244,146.017z"/>
		<path fill="#004B93" d="M312.067,56.948l-23.193,78.061l-19.511-64.669c-3.656-11.581-5.516-13.392-12.537-13.392h-18.137
			l33.621,102.767h24.694l31.323-102.767H312.067z"/>
	</g>
</g>
</svg>
