<svg width="353" height="212" viewBox="0 0 353 212" fill="none" xmlns="http://www.w3.org/2000/svg">
<g clip-path="url(#clip0)">
<path d="M99.3334 208.126H8.69987C3.93282 208.126 0 204.252 0 199.424V8.70171C0 3.87405 3.87323 0 8.69987 0H99.393C104.16 0 108.093 3.87405 108.093 8.70171V199.484C108.033 204.252 104.16 208.126 99.3334 208.126Z" fill="#003763"/>
<path d="M108.033 24.0192H0V179.398H108.033V24.0192Z" fill="white"/>
<path d="M67.9304 14.0657H40.1028C39.5069 14.0657 38.9706 13.5889 38.9706 12.9333C38.9706 12.3373 39.4473 11.8009 40.1028 11.8009H67.9304C68.5263 11.8009 69.0626 12.2777 69.0626 12.9333C69.003 13.5293 68.5263 14.0657 67.9304 14.0657Z" fill="#003763"/>
<path opacity="0.1" d="M63.3422 193.404C63.3422 198.113 59.5285 201.927 54.8211 201.927C50.1136 201.927 46.3 198.113 46.3 193.404C46.3 188.696 50.1136 184.882 54.8211 184.882C59.5285 184.882 63.3422 188.696 63.3422 193.404Z" fill="#096CB6"/>
<path opacity="0.1" d="M79.431 104.719H9.41492V111.156H79.431V104.719Z" fill="#096CB6"/>
<path opacity="0.1" d="M79.431 122.778H9.41492V129.214H79.431V122.778Z" fill="#096CB6"/>
<path opacity="0.1" d="M79.431 140.837H9.41492V147.274H79.431V140.837Z" fill="#096CB6"/>
<path opacity="0.1" d="M79.431 158.896H9.41492V165.333H79.431V158.896Z" fill="#096CB6"/>
<path d="M87.4158 111.573L84.198 108.354L85.6281 106.924L87.4158 108.712L91.7061 104.301L93.1362 105.732L87.4158 111.573Z" fill="#EC0044"/>
<path d="M86.8199 129.632L83.6021 126.413L85.0322 124.983L86.8199 126.771L91.1102 122.36L92.5999 123.731L86.8199 129.632Z" fill="#EC0044"/>
<path d="M86.2836 147.691L83.0659 144.413L84.4364 143.042L86.224 144.83L90.574 140.419L92.0041 141.79L86.2836 147.691Z" fill="#EC0044"/>
<path d="M85.6877 165.69L82.47 162.472L83.9001 161.041L85.6877 162.829L89.9781 158.419L91.4082 159.849L85.6877 165.69Z" fill="#EC0044"/>
<path opacity="0.1" d="M98.2012 0H89.1438C94.5663 0 98.9163 4.41046 98.9163 9.77453V198.292C98.9163 203.715 94.5067 208.066 89.1438 208.066H98.2012C103.624 208.066 107.974 203.656 107.974 198.292V9.77453C108.033 4.41046 103.624 0 98.2012 0Z" fill="#096CB6"/>
<path opacity="0.1" d="M9.77245 0H18.8298C13.4073 0 9.05739 4.41046 9.05739 9.77453V198.292C9.05739 203.715 13.4669 208.066 18.8298 208.066H9.77245C4.34993 208.066 0 203.656 0 198.292V9.77453C0 4.41046 4.40952 0 9.77245 0Z" fill="#096CB6"/>
<path opacity="0.5" d="M55.5362 212H309.024L332.74 209.08C332.978 209.02 333.217 208.841 333.157 208.543C333.157 208.305 332.919 208.066 332.621 208.066H43.2014C42.7843 208.066 42.4268 208.364 42.3672 208.841C42.3076 209.258 42.6056 209.676 43.0227 209.735L55.5362 212Z" fill="#003763"/>
<path d="M72.1613 182.676C72.1613 196.981 83.7809 208.603 98.0821 208.603C112.383 208.603 124.003 196.981 124.003 182.676C124.003 168.372 112.383 156.75 98.0821 156.75C83.7809 156.75 72.1613 168.372 72.1613 182.676Z" fill="#03283E"/>
<path d="M252.594 182.676C252.594 196.981 264.214 208.603 278.515 208.603C292.816 208.603 304.436 196.981 304.436 182.676C304.436 168.372 292.816 156.75 278.515 156.75C264.214 156.75 252.594 168.372 252.594 182.676Z" fill="#03283E"/>
<path d="M33.6673 149.777L317.724 152.22L346.267 193.464L340.308 198.888L326.305 202.345H69.1818L46.4787 196.742L23.9544 188.041L18.2339 178.862L33.6673 149.777Z" fill="#003763"/>
<path d="M253.905 139.347C251.164 138.035 217.437 120.93 207.367 116.222C200.633 113.063 191.635 111.215 191.635 111.215L192.112 109.785C224.29 114.076 266.061 138.929 266.061 138.929C266.061 138.929 256.646 140.598 253.905 139.347Z" fill="#003763"/>
<path d="M62.508 130.645C66.0832 129.334 90.3356 120.453 103.505 115.745C112.264 112.586 124.062 110.738 124.062 110.738L127.697 109.069C82.1125 113.063 38.7323 132.91 38.7323 132.91C38.7323 132.91 58.9327 131.897 62.508 130.645Z" fill="#003763"/>
<path d="M14.8971 159.134L19.5449 156.452L20.0812 141.075L18.5319 135.711L46.8363 128.261C46.8363 128.261 59.2902 128.738 61.197 128.38C107.199 110.381 127.34 107.162 156.24 107.162C187.703 107.162 201.944 107.46 254.918 137.916C256.765 138.989 269.696 137.201 269.696 137.201C298.954 138.393 337.686 152.638 348.65 163.783C351.749 166.823 352.94 168.134 353 173.2C353.06 178.266 349.723 192.153 349.723 192.153C349.723 192.153 347.578 195.014 341.142 195.252C334.706 195.491 326.781 195.789 326.781 195.789H321.955L314.685 195.967V184.584C314.685 168.134 301.397 154.843 284.95 154.843C268.504 154.843 255.216 168.134 255.216 184.584V197.04L117.091 195.312V184.584C117.091 168.134 103.803 154.843 87.3562 154.843C70.9099 154.843 57.6217 168.134 57.6217 184.584V193.941C36.2892 190.663 20.6175 186.133 17.3402 181.008C13.2882 174.511 14.8971 159.134 14.8971 159.134Z" fill="#F2F7FF"/>
<path d="M61.4354 184.822C61.4354 199.126 73.0551 210.748 87.3562 210.748C101.657 210.748 113.277 199.126 113.277 184.822C113.277 170.518 101.657 158.896 87.3562 158.896C73.0551 158.896 61.4354 170.518 61.4354 184.822Z" fill="#03283E"/>
<path d="M113.158 182.14C111.966 182.14 110.953 181.306 110.715 180.173C108.51 169.266 98.9163 161.041 87.3562 161.041C75.7961 161.041 66.1428 169.266 63.9976 180.173C63.7593 181.306 62.7463 182.14 61.5545 182.14C62.925 169.087 73.9488 158.896 87.3562 158.896C100.763 158.896 111.787 169.087 113.158 182.14Z" fill="#506679"/>
<path d="M61.5545 187.564C62.7463 187.564 63.7593 188.398 63.9976 189.531C66.2024 200.437 75.7961 208.662 87.3562 208.662C98.9163 208.662 108.57 200.437 110.715 189.531C110.953 188.398 111.966 187.564 113.158 187.564C111.787 200.616 100.763 210.808 87.3562 210.808C73.9488 210.748 62.925 200.616 61.5545 187.564Z" fill="#03283E"/>
<path d="M102.432 182.021C101.121 174.869 94.8643 169.505 87.3562 169.505C79.8481 169.505 73.5914 174.928 72.2804 182.021H69.2414C68.4072 182.021 67.6325 181.663 67.1558 181.008C66.6791 180.352 66.5004 179.518 66.7387 178.743C69.3606 169.862 77.5838 163.425 87.2966 163.425C97.0095 163.425 105.233 169.862 107.855 178.743C108.093 179.518 107.914 180.352 107.437 181.008C106.961 181.663 106.186 182.021 105.352 182.021H102.432Z" fill="#03283E"/>
<path d="M72.2804 187.683C73.5913 194.835 79.8481 200.199 87.3562 200.199C94.8643 200.199 101.121 194.775 102.432 187.683H105.471C106.305 187.683 107.08 188.04 107.557 188.696C108.033 189.352 108.212 190.186 107.974 190.961C105.352 199.841 97.1286 206.278 87.4158 206.278C77.7029 206.278 69.4797 199.841 66.8579 190.961C66.6195 190.186 66.7983 189.352 67.275 188.696C67.7517 188.04 68.5263 187.683 69.3606 187.683H72.2804Z" fill="#506679"/>
<path d="M68.1092 184.822C68.1092 195.491 76.7495 204.073 87.3562 204.073C97.9628 204.073 106.603 195.431 106.603 184.822C106.603 174.154 97.9628 165.571 87.3562 165.571C76.7495 165.571 68.1092 174.213 68.1092 184.822Z" fill="#506679"/>
<path d="M70.1353 184.822C70.1353 194.299 77.8221 202.047 87.3562 202.047C96.8307 202.047 104.577 194.358 104.577 184.822C104.577 175.346 96.8903 167.597 87.3562 167.597C77.8817 167.657 70.1353 175.346 70.1353 184.822Z" fill="#03283E"/>
<path d="M81.3973 184.822C81.3973 188.1 84.0788 190.782 87.3561 190.782C90.6335 190.782 93.315 188.1 93.315 184.822C93.315 181.544 90.6335 178.862 87.3561 178.862C84.0788 178.862 81.3973 181.544 81.3973 184.822Z" fill="#E2E6F0"/>
<path d="M69.301 181.723H81.9337L75.6174 170.756L81.0399 167.657L87.3562 178.564L93.6726 167.657L99.0951 170.756L92.7787 181.723H105.411V187.981H92.7787L99.0951 198.888L93.6726 202.047L87.3562 191.08L81.0399 202.047L75.6174 198.888L81.9337 187.981H69.301V181.723Z" fill="#506679"/>
<path opacity="0.3" d="M69.301 184.822H105.411V187.981H92.7787L99.0951 198.888L93.6726 202.047L87.3562 191.08L81.0399 202.047L75.6174 198.888L81.9337 187.981H69.301V184.822Z" fill="#0C1B24"/>
<path d="M87.3562 188.041C89.1333 188.041 90.5739 186.6 90.5739 184.822C90.5739 183.045 89.1333 181.604 87.3562 181.604C85.5791 181.604 84.1384 183.045 84.1384 184.822C84.1384 186.6 85.5791 188.041 87.3562 188.041Z" fill="#03283E"/>
<path d="M259.03 184.822C259.03 199.126 270.649 210.748 284.95 210.748C299.252 210.748 310.871 199.126 310.871 184.822C310.871 170.518 299.252 158.896 284.95 158.896C270.649 158.896 259.03 170.518 259.03 184.822Z" fill="#03283E"/>
<path d="M310.752 182.14C309.56 182.14 308.547 181.306 308.309 180.173C306.104 169.266 296.51 161.041 284.95 161.041C273.39 161.041 263.737 169.266 261.592 180.173C261.353 181.306 260.34 182.14 259.149 182.14C260.519 169.087 271.543 158.896 284.95 158.896C298.358 158.896 309.441 169.087 310.752 182.14Z" fill="#506679"/>
<path d="M259.208 187.564C260.4 187.564 261.413 188.398 261.651 189.531C263.856 200.437 273.45 208.662 285.01 208.662C296.57 208.662 306.223 200.437 308.369 189.531C308.607 188.398 309.62 187.564 310.812 187.564C309.441 200.616 298.417 210.808 285.01 210.808C271.543 210.748 260.519 200.616 259.208 187.564Z" fill="#03283E"/>
<path d="M300.086 182.021C298.775 174.869 292.518 169.505 285.01 169.505C277.502 169.505 271.245 174.928 269.934 182.021H266.895C266.061 182.021 265.286 181.663 264.81 181.008C264.333 180.352 264.154 179.518 264.392 178.743C267.014 169.862 275.237 163.425 284.95 163.425C294.663 163.425 302.886 169.862 305.508 178.743C305.747 179.518 305.568 180.352 305.091 181.008C304.614 181.663 303.84 182.021 303.006 182.021H300.086Z" fill="#03283E"/>
<path d="M269.875 187.683C271.186 194.835 277.442 200.199 284.95 200.199C292.458 200.199 298.715 194.775 300.026 187.683H303.065C303.899 187.683 304.674 188.04 305.151 188.696C305.627 189.352 305.806 190.186 305.568 190.961C302.946 199.841 294.723 206.278 285.01 206.278C275.297 206.278 267.074 199.841 264.452 190.961C264.214 190.186 264.392 189.352 264.869 188.696C265.346 188.04 266.121 187.683 266.955 187.683H269.875Z" fill="#506679"/>
<path d="M265.703 184.822C265.703 195.491 274.344 204.073 284.95 204.073C295.617 204.073 304.197 195.431 304.197 184.822C304.197 174.154 295.557 165.571 284.95 165.571C274.344 165.571 265.703 174.213 265.703 184.822Z" fill="#506679"/>
<path d="M267.789 184.822C267.789 194.299 275.476 202.047 285.01 202.047C294.484 202.047 302.231 194.358 302.231 184.822C302.231 175.346 294.544 167.597 285.01 167.597C275.476 167.657 267.789 175.346 267.789 184.822Z" fill="#03283E"/>
<path d="M278.992 184.822C278.992 188.1 281.673 190.782 284.95 190.782C288.228 190.782 290.909 188.1 290.909 184.822C290.909 181.544 288.228 178.862 284.95 178.862C281.673 178.862 278.992 181.544 278.992 184.822Z" fill="#E2E6F0"/>
<path d="M266.955 181.723H279.587L273.271 170.756L278.634 167.657L284.95 178.564L291.267 167.657L296.689 170.756L290.373 181.723H303.006V187.981H290.373L296.689 198.888L291.267 202.047L284.95 191.08L278.634 202.047L273.271 198.888L279.587 187.981H266.955V181.723Z" fill="#506679"/>
<path opacity="0.3" d="M266.955 184.822H303.006V187.981H290.373L296.689 198.888L291.267 202.047L284.95 191.08L278.634 202.047L273.271 198.888L279.587 187.981H266.955V184.822Z" fill="#0C1B24"/>
<path d="M284.95 188.041C286.728 188.041 288.168 186.6 288.168 184.822C288.168 183.045 286.728 181.604 284.95 181.604C283.173 181.604 281.733 183.045 281.733 184.822C281.733 186.6 283.173 188.041 284.95 188.041Z" fill="#03283E"/>
<path d="M85.8665 125.579C121.143 113.003 137.529 111.692 158.326 111.632C189.431 111.513 204.387 115.924 248.244 140.42C248.9 141.075 249.436 144.89 249.436 144.89C249.436 144.89 140.747 138.393 97.2478 135.413C94.328 135.234 87.7733 130.347 85.8665 125.579Z" fill="#64809C"/>
<path d="M85.8665 125.579C87.7733 130.347 94.328 135.235 97.2478 135.413C140.747 138.393 249.436 144.89 249.436 144.89C249.436 144.89 248.959 141.075 248.244 140.42C204.924 116.222 189.729 111.633 159.398 111.633C159.041 111.633 158.683 111.633 158.326 111.633C137.529 111.752 121.143 113.063 85.8665 125.579ZM87.6542 126.354C103.564 120.752 116.376 117.176 127.697 115.268C138.423 113.421 147.361 113.063 158.266 113.004C158.624 113.004 158.981 113.004 159.339 113.004C173.401 113.004 184.902 113.898 198.488 118.248C210.644 122.122 224.349 128.679 247.291 141.493C247.469 141.85 247.648 142.685 247.827 143.638C234.181 142.804 137.41 137.023 97.2478 134.281C95.1027 134.043 89.9185 130.228 87.6542 126.354Z" fill="#03283E"/>
<path d="M171.733 190.663C171.733 190.663 173.878 165.213 170.303 148.048C166.728 130.883 163.987 111.93 163.987 111.93" stroke="#003763" stroke-width="0.7194" stroke-linecap="round"/>
<path d="M48.7431 154.485L63.3422 166.942" stroke="#003763" stroke-width="0.7194" stroke-linecap="round"/>
<path d="M320.048 156.75C306.879 156.214 304.495 156.81 299.43 158.479" stroke="#003763" stroke-width="0.7194" stroke-linecap="round"/>
<path d="M254.918 137.916L248.244 140.479C248.244 140.479 251.283 153.412 250.508 163.008C249.138 179.756 245.98 192.511 245.98 192.511C245.98 192.511 142.833 190.961 135.98 190.126C129.127 189.292 123.586 174.928 120.13 168.909C116.674 162.889 97.5458 135.651 97.5458 135.651L102.432 120.334" stroke="#003763" stroke-width="0.7194" stroke-linecap="round"/>
<path opacity="0.1" d="M263.856 154.068L92.8383 144.89C92.8383 144.89 105.59 149.777 114.29 160.326C118.044 164.856 121.262 170.577 123.407 174.809C125.314 178.564 129.127 181.008 133.358 181.127L243.835 184.226C246.337 184.286 248.602 182.617 249.317 180.173C250.33 176.478 251.879 171.173 253.309 167.657C256.706 158.896 263.856 154.068 263.856 154.068Z" fill="#003763"/>
<g opacity="0.1">
<path opacity="0.1" d="M57.6217 184.465V193.822C37.481 190.723 22.4648 186.551 18.0552 181.782L57.6217 183.034C57.6217 183.511 57.6217 183.988 57.6217 184.465Z" fill="#0C1B24"/>
<path opacity="0.1" d="M314.744 195.848V191.259L349.484 192.391C348.769 193.107 346.386 195.014 341.142 195.193C334.706 195.431 326.781 195.729 326.781 195.729H321.955L314.744 195.848Z" fill="#0C1B24"/>
<path opacity="0.1" d="M117.091 184.941L255.216 189.352V196.921L117.091 195.193V184.941Z" fill="#0C1B24"/>
</g>
<path d="M86.1049 125.519C98.3204 124.327 132.464 121.407 167.681 123.135C190.801 124.268 215.709 128.44 232.155 131.599C237.101 134.221 242.404 137.141 248.244 140.419C248.9 141.075 249.436 144.89 249.436 144.89C249.436 144.89 140.747 138.393 97.2478 135.413C94.328 135.234 87.8329 130.347 85.8665 125.579C85.9261 125.579 85.9857 125.579 86.1049 125.519Z" fill="#003763"/>
<path opacity="0.4" d="M27.9469 135.353C27.9469 135.353 54.8807 138.81 81.3378 141.254C96.4732 142.684 265.406 152.042 265.406 152.042C265.406 152.042 270.411 149.002 277.681 148.168C259.03 145.962 249.376 144.949 249.376 144.949C249.376 144.949 117.031 136.903 92.7788 135.175C68.5264 133.446 46.598 130.764 46.598 130.764L27.9469 135.353Z" fill="white"/>
<path fill-rule="evenodd" clip-rule="evenodd" d="M175.368 147.035L188.656 147.75L187.464 145.307L174.236 144.651L175.368 147.035Z" fill="#003763"/>
<path fill-rule="evenodd" clip-rule="evenodd" d="M109.046 143.102L122.275 143.817L121.143 141.373L107.854 140.718L109.046 143.102Z" fill="#003763"/>
<path fill-rule="evenodd" clip-rule="evenodd" d="M175.368 146.618L188.656 147.333L187.464 144.89L174.236 144.174L175.368 146.618Z" fill="#506679"/>
<path fill-rule="evenodd" clip-rule="evenodd" d="M109.046 142.684L122.275 143.4L121.143 140.956L107.854 140.241L109.046 142.684Z" fill="#506679"/>
<path d="M19.962 146.26C19.962 146.26 25.1462 142.982 29.1982 143.399C37.0638 144.234 48.7431 154.485 48.7431 154.485L19.5449 156.452L19.962 146.26Z" fill="#FF4045"/>
<path d="M18.4128 182.14C18.3532 182.14 18.3532 182.08 18.4128 182.14C18.3532 182.08 18.3532 182.08 18.4128 182.14C18.3532 182.08 18.3532 182.14 18.4128 182.14Z" fill="#003763"/>
<path d="M21.0942 184.107C21.2134 184.166 21.273 184.226 21.3922 184.286C21.3326 184.226 21.2134 184.166 21.0942 184.107Z" fill="#003763"/>
<path d="M20.3196 183.63C20.4984 183.749 20.6176 183.809 20.7963 183.928C20.6176 183.809 20.4388 183.69 20.3196 183.63Z" fill="#003763"/>
<path d="M21.8092 184.524C21.8092 184.464 21.7499 184.464 21.8092 184.524C21.7499 184.464 21.8092 184.464 21.8092 184.524Z" fill="#003763"/>
<path d="M18.6511 182.378C18.7107 182.438 18.7703 182.438 18.7703 182.498C18.7107 182.438 18.7107 182.378 18.6511 182.378Z" fill="#003763"/>
<path d="M22.2264 174.69C23.6565 176.12 25.3846 179.577 26.5764 182.08L18.1149 181.782C17.8765 181.544 17.6381 181.246 17.3998 180.948L17.3402 180.888C15.9697 178.743 15.2546 175.405 14.8971 171.948C17.8765 172.663 21.1538 173.617 22.2264 174.69Z" fill="#003763"/>
<path d="M19.7833 183.213C19.8429 183.272 19.9621 183.332 20.0217 183.392C19.9025 183.332 19.8429 183.272 19.7833 183.213Z" fill="#003763"/>
<path d="M19.3066 182.915C19.3662 182.974 19.4258 182.974 19.4854 183.034C19.4258 182.974 19.3662 182.915 19.3066 182.915Z" fill="#003763"/>
<path opacity="0.1" d="M309.858 156.392C309.858 156.392 317.009 162.174 321.12 174.034C323.802 181.723 324.636 187.504 324.636 187.504L347.101 189.888C347.101 189.888 346.505 180.114 345.79 172.246C343.883 166.703 338.58 163.008 335.719 160.743C329.582 155.916 309.858 156.392 309.858 156.392Z" fill="#0C1B24"/>
<path opacity="0.1" d="M84.5555 144.532C84.5555 144.532 64.0572 145.784 53.3314 167.657C51.8417 170.637 50.7691 173.558 49.9944 175.882C49.5177 177.312 48.5047 178.504 47.0746 179.16C45.7041 179.816 44.0952 179.875 42.7247 179.279L33.1906 175.465C30.0324 174.213 27.3509 171.352 26.8147 168.015C26.3975 165.333 26.3379 163.127 26.5167 162.055C27.053 157.763 30.6283 157.763 37.7789 155.2C46.7767 143.34 84.5555 144.532 84.5555 144.532Z" fill="#0C1B24"/>
<path d="M320.048 156.75C320.048 156.75 324.994 164.796 327.973 166.107C333.515 168.611 338.163 170.518 345.79 172.366C353.477 174.154 348.71 167.061 346.267 164.677C343.823 162.233 329.999 157.346 320.048 156.75Z" fill="#9BCEFF"/>
<path d="M347.756 177.908C351.153 178.028 347.101 189.948 347.101 189.948C347.101 189.948 336.017 188.398 333.276 188.04C329.88 187.564 329.522 185.656 330.952 183.63C332.502 181.484 333.217 179.816 337.567 178.862C339.891 178.326 344.538 177.849 347.756 177.908Z" fill="#003763"/>
<path opacity="0.4" d="M14.8971 159.134L19.545 156.452L48.7431 154.485C48.7431 154.485 44.6911 156.392 35.1571 157.346C22.8223 158.538 14.8971 159.134 14.8971 159.134Z" fill="white"/>
<path opacity="0.4" d="M347.518 190.782C347.578 190.782 347.578 190.782 347.637 190.842L348.352 191.438C348.531 191.557 348.591 191.795 348.471 191.974C348.412 192.153 348.173 192.272 347.995 192.272L325.887 190.484C325.232 190.424 324.576 190.186 324.04 189.828L323.206 189.232C323.027 189.113 322.908 188.815 323.027 188.577C323.087 188.338 323.325 188.219 323.623 188.219L347.518 190.782Z" fill="white"/>
<path opacity="0.4" d="M87.3562 152.101C91.1408 152.101 94.2088 151.141 94.2088 149.956C94.2088 148.771 91.1408 147.81 87.3562 147.81C83.5716 147.81 80.5035 148.771 80.5035 149.956C80.5035 151.141 83.5716 152.101 87.3562 152.101Z" fill="white"/>
<path opacity="0.4" d="M284.95 152.101C288.735 152.101 291.803 151.141 291.803 149.956C291.803 148.771 288.735 147.81 284.95 147.81C281.166 147.81 278.098 148.771 278.098 149.956C278.098 151.141 281.166 152.101 284.95 152.101Z" fill="white"/>
<path opacity="0.1" d="M20.1408 141.015L18.5916 135.651L37.8385 138.512L20.1408 141.015Z" fill="#0C1B24"/>
<path opacity="0.4" fill-rule="evenodd" clip-rule="evenodd" d="M27.053 140.062L26.5763 155.916L21.0942 156.333L21.4518 140.837L27.053 140.062Z" fill="white"/>
<path opacity="0.3" fill-rule="evenodd" clip-rule="evenodd" d="M22.9415 158.479V169.981C22.9415 169.981 16.9827 168.67 16.506 164.558C16.0888 160.743 16.208 159.075 16.208 159.075L22.9415 158.479Z" fill="white"/>
<path opacity="0.4" d="M262.784 141.373C262.784 141.373 268.564 140.121 270.828 139.347C298.239 140.777 331.727 153.055 346.207 162.412C346.088 163.306 345.552 163.664 345.015 164.2C329.999 162.77 307.951 150.313 295.736 147.452C286.202 145.247 279.111 143.459 262.784 141.373Z" fill="white"/>
<path opacity="0.1" d="M245.026 144.889C245.026 144.889 236.565 158.419 235.731 159.074C234.896 159.73 226.852 159.67 227.15 158.121C227.448 156.392 228.401 152.816 229.057 151.088C229.414 150.134 230.666 144.711 230.666 144.711L245.026 144.889Z" fill="#0C1B24"/>
<path d="M230.666 135.771C236.982 137.38 241.57 139.883 245.026 144.949C240.974 146.32 235.731 146.558 230.666 145.664V135.771Z" fill="#F2F7FF"/>
<path opacity="0.1" d="M230.666 145.605V141.731L245.026 144.89C240.974 146.32 235.731 146.499 230.666 145.605Z" fill="#0C1B24"/>
<path opacity="0.4" d="M230.666 135.771C236.982 137.38 241.57 139.883 245.026 144.949C245.026 144.949 239.187 140.36 230.666 138.155V135.771Z" fill="white"/>
<path d="M74.5448 55.7863C74.4852 54.4751 74.4852 53.2831 74.4852 52.0315C74.4852 51.0183 73.7105 50.3031 72.7571 50.3031C65.4278 50.3031 59.8861 48.217 55.2382 43.6874C54.5232 43.0318 53.5102 43.0318 52.7951 43.6874C48.1472 48.217 42.6055 50.3031 35.2762 50.3031C34.2632 50.3031 33.5481 51.0779 33.5481 52.0315C33.5481 53.2831 33.5481 54.4751 33.4886 55.7863C33.2502 68.0641 32.8927 84.9311 53.4506 92.0236L54.0464 92.1428L54.6423 92.0236C75.0811 84.9907 74.7831 68.1833 74.5448 55.7863ZM52.6163 72.8322C52.2588 73.1302 51.8417 73.309 51.365 73.309H51.3054C50.8287 73.309 50.352 73.0706 50.054 72.713L44.6315 66.6933L47.2534 64.3689L51.5437 69.1369L61.0183 60.1372L63.4018 62.7L52.6163 72.8322Z" fill="#096CB6"/>
</g>
<defs>
<clipPath id="clip0">
<rect width="353" height="212" fill="white"/>
</clipPath>
</defs>
</svg>
