<svg id="Layer_1" data-name="Layer 1" xmlns="http://www.w3.org/2000/svg" viewBox="0 0 731.31 159.66"><defs><style>.cls-1{fill:#d3052d;}.cls-2{fill:#fff;}</style></defs><title>Untitled-4</title><path d="M529.77,114.52h1V104.2h5.55V133H531v-1.86h-1c-1.11,1.39-2.86,2.38-5.71,2.38-5.39,0-8.64-4.57-8.64-10.71s3.25-10.71,8.64-10.71C527.08,112.14,528.7,113.09,529.77,114.52Zm1.23,8.33c0-3.22-1.51-6.07-5-6.07s-4.88,2.69-4.88,6.07,1.55,6.11,4.88,6.11S531,126.06,531,122.85Z"/><path d="M559.29,123.48H544.7c.16,3.49,1.79,5.48,5,5.48,2.1,0,3.29-.76,3.8-2.15h5.63c-.83,4.09-4,6.75-9.51,6.75-6.46,0-10.39-4.29-10.39-10.79s4-10.63,10.27-10.63,9.71,4.12,9.83,9.67Zm-14.39-3.69h8.72a3.87,3.87,0,0,0-4.2-3.49A4.24,4.24,0,0,0,544.9,119.79Z"/><path d="M567.68,104.2V133h-5.55V104.2Z"/><path d="M592.79,104.72c6.5,0,10.23,3.33,10.23,9s-3.73,9.17-10.23,9.17h-7V133h-5.9V104.72Zm-.83,13c3.64,0,5-1.39,5-3.89s-1.35-3.89-5-3.89h-6.19v7.78Z"/><path d="M623.25,123.48H608.66c.16,3.49,1.79,5.48,5,5.48,2.1,0,3.29-.76,3.8-2.15h5.63c-.83,4.09-4,6.75-9.51,6.75-6.46,0-10.39-4.29-10.39-10.79s4-10.63,10.27-10.63,9.71,4.12,9.83,9.67Zm-14.39-3.69h8.72a3.86,3.86,0,0,0-4.2-3.49A4.25,4.25,0,0,0,608.86,119.79Z"/><path d="M639.85,117.81h-2c-4.29,0-6.23,2.22-6.23,6.31V133h-5.55V112.65h5.35V115h1c.64-1,2.22-2.3,5.47-2.3h1.91Z"/><path d="M647.22,112.65v11.54c0,2.86,1.39,4.45,4,4.45,2.82,0,4.52-2.42,4.52-5.16V112.65h5.55V133H655.9v-1.86h-1c-1.23,1.58-3.09,2.38-5.67,2.38-5.11,0-7.53-3.14-7.53-8.37V112.65Zm6.38-2.7h-4.87l3.64-5.75h5.87Z"/><path d="M538,71h-8.79V94.07h-5.91V71h-8.79V65.76H538Z"/><path d="M555.09,84.52H540.51c.16,3.48,1.78,5.47,5,5.47,2.1,0,3.29-.76,3.81-2.14h5.62c-.83,4.08-4,6.74-9.51,6.74C538.93,94.59,535,90.3,535,83.8s4-10.62,10.26-10.62,9.71,4.12,9.83,9.67Zm-14.38-3.69h8.71a3.86,3.86,0,0,0-4.2-3.49A4.23,4.23,0,0,0,540.71,80.83Z"/><path d="M576.93,87.21c-.51,4.4-4.19,7.38-9.31,7.38-6.29,0-10.26-4.25-10.26-10.71s4-10.7,10.26-10.7c5.12,0,8.64,2.85,9.16,7h-5.51c-.44-1.54-1.59-2.38-3.61-2.38-3.44,0-4.75,2.74-4.75,6S564.26,90,567.66,90c2.22,0,3.49-1,3.81-2.78Z"/><path d="M593.8,94.07V82.53c0-2.85-1.39-4.44-4-4.44-2.82,0-4.52,2.42-4.52,5.16V94.07h-5.55V73.69h5.35v1.86h1c1.23-1.58,3.09-2.37,5.67-2.37,5.11,0,7.53,3.13,7.53,8.36V94.07Z"/><path d="M623.24,83.88c0,6.38-4,10.71-10.54,10.71s-10.54-4.33-10.54-10.71,4.12-10.7,10.54-10.7S623.24,77.5,623.24,83.88Zm-5.55,0c0-3.25-1.5-6.07-5-6.07s-5,2.82-5,6.07,1.54,6.11,5,6.11S617.69,87.17,617.69,83.88Z"/><path d="M631.67,65.25V94.07h-5.55V65.25Z"/><path d="M655.63,83.88c0,6.38-4,10.71-10.54,10.71s-10.54-4.33-10.54-10.71,4.12-10.7,10.54-10.7S655.63,77.5,655.63,83.88Zm-5.55,0c0-3.25-1.5-6.07-5-6.07s-5,2.82-5,6.07,1.54,6.11,5,6.11S650.08,87.17,650.08,83.88ZM647.31,71h-4.87l3.64-5.74h5.86Z"/><path d="M678.18,73.69V93.08c0,5.79-4.2,9.36-10.22,9.36-5.58,0-9.35-2.38-9.78-6.86h5.5c.28,1.66,1.67,2.5,4.2,2.5,3.49,0,4.76-2.38,4.76-5.48V91.41h-1c-.91,1.27-2.46,2.34-5.31,2.34-5.43,0-8.88-4.24-8.88-10.27s3.49-10.3,8.92-10.3c2.85,0,4.67,1.15,5.46,2.37h1V73.69Zm-5.35,9.79c0-3.17-1.7-5.67-5-5.67-3.13,0-4.87,2.38-4.87,5.67s1.74,5.63,4.87,5.63C671.13,89.11,672.83,86.58,672.83,83.48Z"/><path d="M682.47,70.2v-5h5.63v5Zm5.59,23.87h-5.55V73.69h5.55Z"/><path d="M710.47,87.21c-.52,4.4-4.2,7.38-9.31,7.38-6.3,0-10.26-4.25-10.26-10.71s4-10.7,10.26-10.7c5.11,0,8.64,2.85,9.15,7H704.8c-.43-1.54-1.58-2.38-3.6-2.38-3.45,0-4.76,2.74-4.76,6S697.79,90,701.2,90c2.22,0,3.48-1,3.8-2.78Z"/><path d="M726,92.33h-1a7,7,0,0,1-5.7,2.26c-4.6,0-7.21-3.18-7.21-6.78,0-3.18,2.25-6.78,8.28-6.78h5.42v-.52c0-2.1-1.18-3.17-3.6-3.17-2.22,0-3.29.79-3.45,2.18h-5.5c.11-3.93,3.76-6.34,8.67-6.34,5.51,0,9.23,2.18,9.23,7.65V94.07H726Zm-.24-6.43V84.63h-4.35c-2.38,0-3.81.88-3.81,2.74s1.35,2.82,3.61,2.82A4.22,4.22,0,0,0,725.8,85.9Z"/><path d="M539.35,26.61V44.48c0,7-4.25,10.94-11.91,10.94s-11.82-3.92-11.82-10.94V26.61h5.91V44.36c0,3.49,2.14,5.79,6,5.79s5.95-2.3,5.95-5.79V26.61Zm17.7,28.3V43.37c0-2.85-1.39-4.44-4-4.44-2.82,0-4.52,2.42-4.52,5.16V54.91H543V34.53h5.36V36.4h1c1.23-1.59,3.1-2.38,5.68-2.38,5.11,0,7.53,3.13,7.53,8.36V54.91Zm9.21-23.86v-5h5.63v5Zm5.59,23.86H566.3V34.53h5.55Zm2.8-20.38h5.67L584.53,50h1.7l4-15.42H596l-5.87,20.38h-9.64Zm42,10.83H602c.16,3.48,1.78,5.47,5,5.47,2.1,0,3.29-.76,3.81-2.15h5.63c-.83,4.09-4,6.74-9.52,6.74-6.47,0-10.4-4.28-10.4-10.78S600.47,34,606.78,34s9.72,4.12,9.84,9.67Zm-14.4-3.69H611a3.88,3.88,0,0,0-4.21-3.49A4.23,4.23,0,0,0,602.22,41.67Zm31.3-2h-2c-4.28,0-6.23,2.22-6.23,6.3v8.92h-5.55V34.53h5.35v2.3h1c.64-.95,2.23-2.3,5.48-2.3h1.9Zm14.08.43c-.27-1.38-1.5-1.82-3.29-1.82s-3,.51-3,1.74.79,1.39,2.18,1.67l3.69.55c3.85.6,6.5,2.46,6.5,6.54,0,3.41-3.05,6.62-9,6.62-6.19,0-9.17-2.69-9.6-6.93h5.51c.28,1.86,1.71,2.65,4,2.65s3.53-.75,3.53-2.22-.91-1.9-2.94-2.26l-4-.63c-3.22-.6-5.48-2.14-5.48-5.63S638.44,34,644.47,34c5.12,0,8.21,2.46,8.65,6.1Zm9-9.07v-5h5.64v5Zm5.6,23.86H656.6V34.53h5.56ZM679.21,36.4h1V26.09h5.55V54.91h-5.35V53.05h-1c-1.11,1.38-2.85,2.37-5.71,2.37-5.39,0-8.65-4.56-8.65-10.7S668.3,34,673.69,34C676.51,34,678.13,35,679.21,36.4Zm1.23,8.32c0-3.21-1.51-6.06-5-6.06s-4.88,2.69-4.88,6.06,1.54,6.11,4.88,6.11S680.44,47.93,680.44,44.72Zm22.16,8.44h-1a7,7,0,0,1-5.71,2.26c-4.6,0-7.22-3.17-7.22-6.77,0-3.18,2.26-6.78,8.29-6.78h5.43v-.52c0-2.1-1.19-3.17-3.61-3.17-2.22,0-3.29.79-3.45,2.18h-5.51c.12-3.92,3.77-6.34,8.69-6.34,5.51,0,9.24,2.18,9.24,7.65V54.91H702.6Zm-.24-6.42V45.47H698c-2.38,0-3.81.88-3.81,2.74S695.54,51,697.8,51A4.22,4.22,0,0,0,702.36,46.74ZM724.73,36.4h1V26.09h5.55V54.91H726V53.05h-1c-1.11,1.38-2.86,2.37-5.72,2.37-5.39,0-8.65-4.56-8.65-10.7S713.82,34,719.21,34C722,34,723.66,35,724.73,36.4ZM726,44.72c0-3.21-1.51-6.06-5-6.06s-4.88,2.69-4.88,6.06,1.55,6.11,4.88,6.11S726,47.93,726,44.72Z"/><rect class="cls-1" width="159.66" height="159.66"/><path class="cls-2" d="M96.68,35.48h27.5v72.43l-17.5,16.26H53l-17.5-16.26V35.48H63V99.15l3.75,3.75h26.2l3.75-3.75Z"/><rect x="159.66" width="159.66" height="159.66" transform="translate(319.33 -159.66) rotate(90)"/><path class="cls-2" d="M225.74,124.17V56.74h-30.6V35.48h88.71V56.74h-30.6v67.43Z"/><rect class="cls-1" x="319.33" width="159.66" height="159.66"/><path class="cls-2" d="M382.31,99.91v24.26h-27.5V35.48h72.45l16.25,15v34.4l-16.25,15Zm29.95-43.09H382.31V78.71h29.95L416,75V60.57Z"/></svg>