<?xml version="1.0" standalone="no"?>
<!DOCTYPE svg PUBLIC "-//W3C//DTD SVG 20010904//EN"
 "http://www.w3.org/TR/2001/REC-SVG-20010904/DTD/svg10.dtd">
<svg version="1.0" xmlns="http://www.w3.org/2000/svg"
 width="375.000000pt" height="150.000000pt" viewBox="0 0 375.000000 150.000000"
 preserveAspectRatio="xMidYMid meet">

<g transform="translate(0.000000,150.000000) scale(0.100000,-0.100000)"
fill="#000000" stroke="none">
<path d="M2507 1103 c-4 -3 9 -20 28 -37 57 -54 57 -175 -1 -233 -32 -32 -22
-43 14 -16 40 30 57 70 57 139 0 48 -5 68 -25 97 -24 35 -62 61 -73 50z"/>
<path d="M2654 1094 c-18 -14 -18 -15 5 -8 19 5 23 3 18 -9 -3 -9 -9 -32 -13
-53 -5 -28 -4 -36 7 -32 7 2 16 19 20 36 4 18 12 39 19 47 24 28 32 16 25 -36
-7 -49 -6 -51 16 -47 12 1 24 9 27 16 2 7 -2 10 -11 6 -13 -5 -14 1 -7 33 11
48 -6 71 -38 54 -14 -7 -23 -8 -27 -1 -9 14 -18 13 -41 -6z"/>
<path d="M1757 1072 c-36 -38 -53 -113 -37 -171 13 -48 58 -101 86 -101 15 0
12 6 -13 29 -29 26 -35 40 -47 103 -2 9 0 38 5 65 6 36 17 55 41 76 28 23 29
27 12 27 -11 0 -32 -12 -47 -28z"/>
<path d="M1888 1077 c-43 -25 -50 -40 -13 -31 l25 6 0 -81 c0 -74 -2 -81 -20
-81 -11 0 -20 -4 -20 -10 0 -6 27 -10 60 -10 58 0 84 15 38 22 -22 3 -23 9
-28 105 l-5 101 -37 -21z"/>
<path d="M2446 1075 c-4 -10 1 -15 14 -15 11 0 20 7 20 15 0 8 -6 15 -14 15
-8 0 -16 -7 -20 -15z"/>
<path d="M3240 1074 c0 -9 7 -14 17 -12 25 5 28 28 4 28 -12 0 -21 -6 -21 -16z"/>
<path d="M2180 1025 l0 -45 -46 0 c-59 0 -55 -24 4 -28 l42 -3 0 -45 c0 -32 4
-44 15 -44 11 0 15 12 15 45 l0 45 40 0 c29 0 40 4 40 15 0 11 -11 15 -40 15
l-40 0 0 45 c0 33 -4 45 -15 45 -11 0 -15 -12 -15 -45z"/>
<path d="M2915 1050 c-4 -7 8 -27 29 -49 l36 -37 -35 -34 c-19 -19 -35 -38
-35 -42 0 -17 26 -7 57 24 l33 32 34 -33 c49 -47 69 -30 22 18 l-36 37 35 34
c23 23 32 37 25 44 -7 7 -22 -1 -45 -24 l-35 -34 -39 38 c-26 26 -41 34 -46
26z"/>
<path d="M1557 1043 c-4 -3 -7 -152 -7 -330 l0 -323 48 1 c29 1 36 4 20 6
l-28 4 0 315 0 314 25 0 c14 0 25 5 25 10 0 11 -73 14 -83 3z"/>
<path d="M3350 1040 c0 -5 9 -10 20 -10 20 0 20 -7 20 -314 l0 -315 -22 -4
c-13 -2 -4 -5 20 -6 l42 -1 0 330 0 330 -40 0 c-22 0 -40 -4 -40 -10z"/>
<path d="M2424 998 c0 -18 -4 -52 -8 -75 -7 -36 -6 -44 9 -49 20 -8 46 5 54
27 4 12 2 12 -13 0 -9 -8 -19 -12 -22 -9 -4 5 9 76 22 121 4 13 0 17 -19 17
-20 0 -23 -5 -23 -32z"/>
<path d="M3213 950 c-3 -78 -2 -80 21 -80 25 0 51 22 39 33 -3 4 -13 1 -21 -6
-16 -13 -15 5 4 101 6 29 4 32 -17 32 -23 0 -24 -3 -26 -80z"/>
<path d="M325 841 c-66 -28 -111 -164 -67 -204 11 -10 36 -17 61 -17 34 0 43
4 50 23 13 32 2 42 -20 18 -24 -26 -55 -27 -68 -3 -10 19 -1 85 16 117 28 51
83 71 83 30 0 -8 7 -15 15 -15 9 0 15 9 15 24 0 32 -41 45 -85 27z"/>
<path d="M819 790 c-18 -20 -22 -30 -13 -30 11 0 12 -7 7 -27 -4 -16 -8 -46
-8 -68 0 -35 3 -40 26 -43 16 -2 32 5 45 19 19 22 19 22 -1 15 -36 -14 -40
-11 -38 22 2 63 12 82 38 82 14 0 25 5 25 10 0 6 -9 10 -20 10 -13 0 -20 7
-20 20 0 27 -10 25 -41 -10z"/>
<path d="M430 765 c-17 -21 -5 -32 16 -14 16 13 16 11 9 -26 -16 -75 -13 -100
13 -103 13 -2 32 4 42 13 16 14 18 14 23 0 7 -18 38 -20 55 -3 19 19 14 30 -9
17 -21 -11 -22 -10 -15 22 18 93 19 109 3 109 -10 0 -17 -13 -22 -38 -13 -77
-77 -141 -66 -66 11 72 7 99 -15 102 -11 2 -27 -4 -34 -13z"/>
<path d="M649 751 c-22 -23 -29 -39 -29 -69 0 -48 17 -64 62 -60 24 2 38 12
55 37 59 88 -14 165 -88 92z m77 -5 c3 -8 0 -32 -6 -55 -17 -63 -70 -79 -70
-20 0 43 26 89 51 89 11 0 22 -6 25 -14z"/>
<path d="M967 769 c-41 -24 -62 -114 -31 -140 12 -10 22 -10 47 -1 21 8 33 9
35 2 5 -14 35 -12 57 3 11 9 14 16 7 21 -6 3 -13 2 -17 -4 -16 -27 -22 6 -9
58 7 31 13 59 14 62 0 10 -85 9 -103 -1z m61 -35 c4 -25 -38 -89 -58 -89 -21
0 -15 72 7 97 21 23 47 19 51 -8z"/>
<path d="M1210 750 c0 -6 40 -10 100 -10 60 0 100 4 100 10 0 6 -40 10 -100
10 -60 0 -100 -4 -100 -10z"/>
<path d="M1650 710 c0 -7 288 -10 845 -10 557 0 845 3 845 10 0 7 -288 10
-845 10 -557 0 -845 -3 -845 -10z"/>
<path d="M1210 685 c0 -12 17 -15 101 -15 76 0 100 3 97 13 -3 8 -35 13 -101
15 -82 2 -97 0 -97 -13z"/>
<path d="M1717 602 c-36 -38 -53 -113 -37 -171 13 -48 58 -101 86 -101 15 0
12 6 -13 29 -29 26 -35 40 -47 103 -2 9 0 38 5 65 6 36 17 55 41 76 28 23 29
27 12 27 -11 0 -32 -12 -47 -28z"/>
<path d="M1848 607 c-43 -25 -50 -40 -13 -31 l25 6 0 -81 c0 -74 -2 -81 -20
-81 -11 0 -20 -4 -20 -10 0 -6 27 -10 60 -10 58 0 84 15 38 22 -22 3 -23 9
-28 105 l-5 101 -37 -21z"/>
<path d="M2498 602 c35 -33 47 -79 40 -154 -5 -42 -11 -57 -38 -81 -36 -32
-32 -49 7 -27 40 23 63 76 63 143 0 63 -17 107 -52 131 -38 27 -52 18 -20 -12z"/>
<path d="M3228 609 c-50 -26 -60 -43 -19 -34 l31 7 0 -65 c0 -78 -6 -97 -31
-97 -10 0 -19 -4 -19 -10 0 -6 27 -10 60 -10 33 0 60 4 60 10 0 6 -9 10 -20
10 -18 0 -20 8 -22 104 l-3 104 -37 -19z"/>
<path d="M2406 605 c-4 -10 1 -15 14 -15 11 0 20 7 20 15 0 8 -6 15 -14 15 -8
0 -16 -7 -20 -15z"/>
<path d="M2614 604 c-18 -14 -18 -15 5 -8 19 5 23 3 18 -9 -3 -9 -9 -32 -13
-53 -5 -28 -4 -36 7 -32 7 2 16 19 20 36 4 18 12 39 19 47 24 28 32 16 25 -36
-7 -49 -6 -51 16 -47 12 1 24 9 27 16 2 7 -2 10 -11 6 -13 -5 -14 1 -7 33 11
48 -6 71 -38 54 -14 -7 -23 -8 -27 -1 -9 14 -18 13 -41 -6z"/>
<path d="M2140 555 l0 -45 -40 0 c-29 0 -40 -4 -40 -15 0 -11 11 -15 39 -15
40 0 40 0 43 -42 4 -59 28 -63 28 -4 l0 46 45 0 c33 0 45 4 45 15 0 11 -12 15
-45 15 l-45 0 0 45 c0 33 -4 45 -15 45 -11 0 -15 -12 -15 -45z"/>
<path d="M2384 528 c0 -18 -4 -52 -8 -75 -7 -36 -6 -44 9 -49 20 -8 46 5 54
27 4 12 2 12 -13 0 -9 -8 -19 -12 -22 -9 -4 5 9 76 22 121 4 13 0 17 -19 17
-20 0 -23 -5 -23 -32z"/>
<path d="M2862 498 c3 -9 35 -14 101 -16 82 -2 97 0 97 13 0 12 -17 15 -101
15 -76 0 -100 -3 -97 -12z"/>
</g>
</svg>
