<?xml version="1.0" standalone="no"?>
<!DOCTYPE svg PUBLIC "-//W3C//DTD SVG 20010904//EN"
 "http://www.w3.org/TR/2001/REC-SVG-20010904/DTD/svg10.dtd">
<svg version="1.0" xmlns="http://www.w3.org/2000/svg"
 width="530.000000pt" height="209.000000pt" viewBox="0 0 530.000000 209.000000"
 preserveAspectRatio="xMidYMid meet">

<g transform="translate(0.000000,209.000000) scale(0.100000,-0.100000)"
fill="#000000" stroke="none">
<path d="M1670 995 l0 -705 50 0 c28 0 50 5 50 10 0 6 -13 10 -30 10 l-30 0 0
685 0 685 30 0 c17 0 30 5 30 10 0 6 -22 10 -50 10 l-50 0 0 -705z"/>
<path d="M4460 1690 c0 -5 11 -10 25 -10 l25 0 0 -685 0 -685 -25 0 c-14 0
-25 -4 -25 -10 0 -5 20 -10 45 -10 l45 0 0 705 0 705 -45 0 c-25 0 -45 -4 -45
-10z"/>
<path d="M1810 995 l0 -605 50 0 c28 0 50 5 50 10 0 6 -13 10 -30 10 l-30 0 0
585 0 585 30 0 c17 0 30 5 30 10 0 6 -22 10 -50 10 l-50 0 0 -605z"/>
<path d="M3760 1590 c0 -5 11 -10 25 -10 l25 0 0 -585 0 -585 -25 0 c-14 0
-25 -4 -25 -10 0 -5 20 -10 45 -10 l45 0 0 605 0 605 -45 0 c-25 0 -45 -4 -45
-10z"/>
<path d="M3447 1568 c2 -13 -2 -47 -10 -75 l-14 -53 39 0 c30 0 46 7 69 29 56
57 28 121 -52 121 -32 0 -36 -3 -32 -22z m81 -36 c4 -37 -16 -67 -50 -75 -19
-5 -20 -3 -13 40 9 65 15 74 39 71 16 -2 22 -11 24 -36z"/>
<path d="M3639 1538 c-17 -29 -38 -63 -47 -75 -13 -22 -13 -23 10 -23 19 0 24
5 24 23 -1 17 5 23 28 25 26 3 28 1 24 -22 -5 -23 -2 -26 20 -26 20 0 23 3 14
12 -7 7 -12 33 -12 59 0 51 -7 79 -20 79 -5 0 -23 -24 -41 -52z m40 -30 c1 -5
-8 -8 -19 -8 -17 0 -18 3 -8 26 11 23 13 24 19 7 4 -10 8 -21 8 -25z"/>
<path d="M2617 1358 c-9 -32 -2 -33 30 -8 24 19 28 19 31 6 5 -21 -28 -168
-41 -183 -7 -10 -1 -13 28 -13 29 0 35 3 27 13 -8 9 -6 38 8 101 11 49 22 91
24 94 11 10 36 -9 36 -28 0 -24 15 -27 24 -4 15 40 9 44 -78 44 -78 0 -84 -2
-89 -22z"/>
<path d="M2848 1372 c10 -7 9 -26 -7 -96 -10 -47 -24 -93 -31 -101 -11 -13 -2
-15 64 -15 73 0 76 1 82 25 9 35 -3 44 -22 17 -10 -14 -26 -22 -45 -22 -31 0
-33 6 -23 59 7 35 36 43 53 14 12 -22 17 -17 26 25 6 31 -6 45 -20 22 -3 -5
-15 -10 -26 -10 -18 0 -20 4 -14 33 10 44 13 47 40 47 14 0 29 -9 35 -20 14
-27 27 -25 32 5 l5 25 -81 0 c-46 0 -75 -4 -68 -8z"/>
<path d="M3057 1361 c5 -21 -22 -153 -38 -183 -8 -16 -6 -18 22 -18 25 0 29 3
21 13 -8 9 -6 33 7 88 l17 74 8 -72 c6 -51 12 -73 21 -73 8 0 32 30 54 68 23
37 41 64 41 60 0 -25 -24 -117 -36 -135 -14 -22 -13 -23 20 -23 29 0 33 3 29
19 -6 22 25 170 40 189 7 9 2 12 -19 12 -25 0 -34 -9 -69 -69 -41 -73 -54 -75
-55 -11 0 62 -10 80 -40 80 -23 0 -27 -4 -23 -19z"/>
<path d="M3410 1370 c0 -6 60 -10 160 -10 100 0 160 4 160 10 0 6 -60 10 -160
10 -100 0 -160 -4 -160 -10z"/>
<path d="M1947 1333 c-4 -3 -7 -152 -7 -330 l0 -323 48 1 c29 1 36 4 20 6
l-28 4 0 315 0 314 25 0 c14 0 25 5 25 10 0 11 -73 14 -83 3z"/>
<path d="M3300 1330 c0 -5 9 -10 20 -10 20 0 20 -7 20 -314 l0 -315 -22 -4
c-13 -2 -4 -5 20 -6 l42 -1 0 330 0 330 -40 0 c-22 0 -40 -4 -40 -10z"/>
<path d="M3468 1333 c-10 -2 -18 -11 -18 -19 0 -17 5 -17 30 -2 15 10 22 10
31 1 15 -15 -4 -43 -30 -44 -9 0 -4 -5 12 -11 16 -6 27 -17 27 -28 0 -23 -28
-34 -47 -19 -15 13 -28 6 -18 -10 9 -15 68 -14 83 1 17 17 15 47 -3 54 -12 5
-12 9 1 29 13 20 13 24 -1 39 -16 16 -33 18 -67 9z"/>
<path d="M3607 1322 c-20 -22 -23 -102 -5 -120 19 -19 55 -14 72 10 22 31 20
84 -4 108 -25 25 -42 25 -63 2z m51 -52 c1 -25 -2 -52 -8 -60 -9 -13 -12 -12
-25 4 -26 35 -16 110 14 104 11 -2 17 -16 19 -48z"/>
<path d="M976 1125 c-26 -40 -18 -51 14 -20 17 16 30 32 30 37 0 17 -29 7 -44
-17z"/>
<path d="M2098 1117 c-43 -25 -50 -40 -13 -31 l25 6 0 -81 c0 -74 -2 -81 -20
-81 -11 0 -20 -4 -20 -10 0 -6 27 -10 60 -10 58 0 84 15 38 22 -22 3 -23 9
-28 105 l-5 101 -37 -21z"/>
<path d="M4338 1117 c-43 -25 -50 -40 -13 -31 l25 6 0 -81 c0 -74 -2 -81 -20
-81 -11 0 -20 -4 -20 -10 0 -6 27 -10 60 -10 58 0 84 15 38 22 -22 3 -23 9
-28 105 l-5 101 -37 -21z"/>
<path d="M197 1111 c6 -22 -25 -170 -40 -188 -7 -10 -1 -13 28 -13 31 0 35 2
26 14 -14 16 22 185 42 198 7 4 -4 8 -25 8 -31 0 -35 -3 -31 -19z"/>
<path d="M5018 1122 c10 -7 9 -26 -7 -96 -10 -47 -24 -93 -31 -101 -11 -13 -7
-15 24 -15 24 0 35 4 31 11 -10 15 4 99 16 99 12 0 43 -68 41 -92 -1 -13 7
-18 29 -18 16 0 29 5 29 10 0 6 -4 10 -9 10 -9 0 -41 77 -41 100 0 8 21 33 48
57 l47 42 -38 1 c-25 0 -36 -4 -31 -11 6 -11 -52 -79 -69 -79 -10 0 1 60 15
78 8 9 1 12 -28 12 -24 0 -34 -3 -26 -8z"/>
<path d="M502 1085 c-6 -14 -17 -25 -24 -25 -10 0 -9 -3 1 -9 11 -7 12 -17 2
-56 -15 -61 -8 -85 28 -85 16 0 34 7 41 15 17 20 5 31 -16 15 -23 -20 -33 3
-22 53 12 53 15 57 44 57 13 0 24 5 24 10 0 6 -11 10 -25 10 -19 0 -25 5 -23
16 5 27 -18 27 -30 -1z"/>
<path d="M2390 1065 l0 -45 -40 0 c-29 0 -40 -4 -40 -15 0 -11 11 -15 39 -15
40 0 40 0 43 -42 4 -59 28 -63 28 -4 l0 46 45 0 c33 0 45 4 45 15 0 11 -12 15
-45 15 l-45 0 0 45 c0 33 -4 45 -15 45 -11 0 -15 -12 -15 -45z"/>
<path d="M4695 1090 c-4 -7 8 -27 29 -49 l36 -37 -35 -34 c-19 -19 -35 -38
-35 -42 0 -17 26 -7 57 24 l33 32 34 -33 c49 -47 69 -30 22 18 l-36 37 35 34
c23 23 32 37 25 44 -7 7 -22 -1 -45 -24 l-35 -34 -39 38 c-26 26 -41 34 -46
26z"/>
<path d="M282 1058 c-18 -18 -14 -32 5 -17 15 13 16 10 10 -33 -4 -27 -9 -59
-13 -73 -5 -19 -2 -25 9 -25 16 0 20 10 32 66 8 39 52 85 60 62 3 -8 2 -34 -4
-58 -11 -49 -6 -70 18 -70 24 0 57 25 43 34 -6 3 -13 2 -17 -4 -13 -21 -23 2
-14 33 23 80 1 115 -53 84 -24 -14 -28 -14 -28 -2 0 18 -31 20 -48 3z"/>
<path d="M630 1041 c-23 -22 -30 -39 -30 -68 0 -22 5 -44 12 -51 17 -17 59
-15 86 4 30 21 17 38 -13 18 -29 -19 -55 -12 -55 14 0 15 9 21 39 26 45 7 64
26 59 58 -5 38 -60 37 -98 -1z m70 -6 c0 -16 -46 -43 -56 -32 -3 3 -1 15 6 26
12 24 50 28 50 6z"/>
<path d="M762 1058 c-18 -18 -14 -32 5 -17 15 13 16 10 10 -33 -4 -27 -9 -59
-13 -73 -5 -19 -2 -25 10 -25 9 0 18 12 22 28 12 55 17 67 32 84 10 12 23 16
38 12 20 -5 24 -2 24 15 0 25 -26 28 -58 5 -20 -14 -22 -14 -22 0 0 19 -31 21
-48 4z"/>
<path d="M931 1044 c-25 -32 -27 -81 -5 -112 18 -26 69 -30 100 -8 26 19 13
30 -19 15 -30 -14 -51 -2 -60 31 -5 18 0 20 44 20 45 0 49 2 49 23 0 56 -73
76 -109 31z m69 2 c0 -2 3 -11 6 -20 5 -13 -1 -16 -25 -16 -29 0 -41 16 -24
33 7 8 43 10 43 3z"/>
<path d="M1102 1058 c-21 -21 -13 -56 18 -78 35 -25 37 -35 10 -50 -15 -8 -23
-6 -38 10 -17 19 -20 19 -26 5 -10 -26 2 -35 44 -35 39 0 70 20 70 46 0 7 -13
26 -30 41 -16 14 -30 32 -30 40 0 20 47 16 55 -4 6 -17 7 -17 16 0 6 9 7 22 4
27 -9 14 -79 12 -93 -2z"/>
<path d="M1330 1040 c0 -6 40 -10 100 -10 60 0 100 4 100 10 0 6 -40 10 -100
10 -60 0 -100 -4 -100 -10z"/>
<path d="M3972 1008 c3 -9 35 -14 101 -16 82 -2 97 0 97 13 0 12 -17 15 -101
15 -76 0 -100 -3 -97 -12z"/>
<path d="M2600 1000 c0 -6 120 -10 340 -10 220 0 340 4 340 10 0 6 -120 10
-340 10 -220 0 -340 -4 -340 -10z"/>
<path d="M1330 975 c0 -12 17 -15 101 -15 76 0 100 3 97 13 -3 8 -35 13 -101
15 -82 2 -97 0 -97 -13z"/>
<path d="M2748 899 c-50 -26 -60 -43 -19 -34 l31 7 0 -65 c0 -78 -6 -97 -31
-97 -10 0 -19 -4 -19 -10 0 -6 27 -10 60 -10 33 0 60 4 60 10 0 6 -9 10 -20
10 -18 0 -20 8 -22 104 l-3 104 -37 -19z"/>
<path d="M2920 907 c-47 -24 -61 -136 -24 -194 21 -33 78 -32 100 2 38 59 26
172 -22 194 -30 13 -24 13 -54 -2z m50 -26 c11 -21 14 -129 4 -155 -10 -25
-43 -19 -54 10 -15 39 -12 117 6 142 19 27 30 28 44 3z"/>
<path d="M3100 907 c-47 -24 -61 -136 -24 -194 21 -33 78 -32 100 2 38 59 26
172 -22 194 -30 13 -24 13 -54 -2z m50 -26 c11 -21 14 -129 4 -155 -10 -25
-43 -19 -54 10 -15 39 -12 117 6 142 19 27 30 28 44 3z"/>
</g>
</svg>
