<?xml version="1.0" standalone="no"?>
<!DOCTYPE svg PUBLIC "-//W3C//DTD SVG 20010904//EN"
 "http://www.w3.org/TR/2001/REC-SVG-20010904/DTD/svg10.dtd">
<svg version="1.0" xmlns="http://www.w3.org/2000/svg"
 width="531.000000pt" height="102.000000pt" viewBox="0 0 531.000000 102.000000"
 preserveAspectRatio="xMidYMid meet">

<g transform="translate(0.000000,102.000000) scale(0.100000,-0.100000)"
fill="#000000" stroke="none">
<path d="M3338 664 c-29 -15 -39 -30 -13 -20 24 9 21 -89 -2 -103 -14 -8 -7
-10 31 -11 42 0 47 2 33 13 -11 8 -17 30 -19 74 l-3 61 -27 -14z"/>
<path d="M3453 673 c-15 -6 -17 -33 -3 -33 6 0 10 5 10 10 0 6 9 10 20 10 29
0 26 -41 -6 -71 -14 -13 -30 -32 -35 -41 -9 -16 -4 -18 41 -18 37 0 50 4 50
15 0 11 -8 13 -31 8 -28 -5 -30 -4 -21 13 6 11 20 28 31 38 47 42 5 94 -56 69z"/>
<path d="M1661 639 c-84 -51 -82 -218 4 -275 32 -21 47 -9 16 13 -31 21 -51
72 -51 127 0 57 12 88 46 120 36 32 28 41 -15 15z"/>
<path d="M3167 653 c-4 -3 9 -20 28 -37 57 -54 57 -175 -1 -233 -32 -32 -22
-43 14 -16 40 30 57 70 57 139 0 48 -5 68 -25 97 -24 35 -62 61 -73 50z"/>
<path d="M505 631 c-66 -28 -111 -164 -67 -204 11 -10 36 -17 61 -17 34 0 43
4 50 23 13 32 2 42 -20 18 -24 -26 -55 -27 -68 -3 -10 19 -1 85 16 117 28 51
83 71 83 30 0 -8 7 -15 15 -15 9 0 15 9 15 24 0 32 -41 45 -85 27z"/>
<path d="M875 535 c-33 -58 -63 -105 -67 -105 -5 0 -8 -4 -8 -10 0 -5 16 -10
36 -10 31 0 35 2 25 14 -21 25 4 56 44 56 30 0 35 -3 35 -23 0 -13 -5 -28 -12
-35 -9 -9 -4 -12 26 -12 33 0 37 3 30 18 -6 13 -17 104 -23 200 -2 33 -32 2
-86 -93z m65 5 c0 -38 -2 -40 -29 -40 l-29 0 21 40 c12 22 25 40 30 40 4 0 7
-18 7 -40z"/>
<path d="M1507 612 c-36 -38 -53 -113 -37 -171 13 -48 58 -101 86 -101 15 0
12 6 -13 29 -29 26 -35 40 -47 103 -2 9 0 38 5 65 6 36 17 55 41 76 28 23 29
27 12 27 -11 0 -32 -12 -47 -28z"/>
<path d="M1778 619 c-50 -26 -60 -43 -19 -34 l31 7 0 -65 c0 -78 -6 -97 -31
-97 -10 0 -19 -4 -19 -10 0 -6 27 -10 60 -10 33 0 60 4 60 10 0 6 -9 10 -20
10 -18 0 -20 8 -22 104 l-3 104 -37 -19z"/>
<path d="M2575 631 c-66 -28 -111 -164 -67 -204 11 -10 36 -17 61 -17 34 0 43
4 50 23 13 32 2 42 -20 18 -24 -26 -55 -27 -68 -3 -10 19 -1 85 16 117 28 51
83 71 83 30 0 -8 7 -15 15 -15 9 0 15 9 15 24 0 32 -41 45 -85 27z"/>
<path d="M4028 619 c-50 -26 -60 -43 -19 -34 l31 7 0 -65 c0 -78 -6 -97 -31
-97 -10 0 -19 -4 -19 -10 0 -6 27 -10 60 -10 33 0 60 4 60 10 0 6 -9 10 -20
10 -18 0 -20 8 -22 104 l-3 104 -37 -19z"/>
<path d="M4168 612 c35 -33 47 -79 40 -154 -5 -42 -11 -57 -38 -81 -36 -32
-32 -49 7 -27 40 23 63 76 63 143 0 63 -17 107 -52 131 -38 27 -52 18 -20 -12z"/>
<path d="M4718 617 c-43 -25 -50 -40 -13 -31 l25 6 0 -81 c0 -74 -2 -81 -20
-81 -11 0 -20 -4 -20 -10 0 -6 27 -10 60 -10 58 0 84 15 38 22 -22 3 -23 9
-28 105 l-5 101 -37 -21z"/>
<path d="M4884 617 c-24 -21 -28 -33 -32 -88 -3 -54 -1 -68 18 -91 29 -37 71
-38 99 -2 28 35 30 142 4 172 -29 33 -57 36 -89 9z m63 -28 c28 -53 10 -159
-26 -159 -25 0 -34 29 -34 103 1 83 32 112 60 56z"/>
<path d="M5080 627 c-47 -24 -61 -136 -24 -194 21 -33 78 -32 100 2 38 59 26
172 -22 194 -30 13 -24 13 -54 -2z m50 -26 c11 -21 14 -129 4 -155 -10 -25
-43 -19 -54 10 -15 39 -12 117 6 142 19 27 30 28 44 3z"/>
<path d="M220 605 c0 -14 5 -25 10 -25 6 0 10 4 10 10 0 11 39 34 47 27 8 -8
-28 -160 -43 -184 -14 -22 -13 -23 19 -23 30 0 34 3 30 23 -2 12 4 58 14 102
20 85 37 101 60 55 l12 -24 10 28 c6 15 11 29 11 32 0 2 -40 4 -90 4 -89 0
-90 0 -90 -25z"/>
<path d="M648 622 c10 -7 9 -26 -7 -96 -10 -47 -24 -93 -31 -101 -11 -13 -2
-15 64 -15 73 0 76 1 82 25 9 35 -3 44 -22 17 -10 -14 -26 -22 -45 -22 -31 0
-33 6 -23 59 7 35 36 43 53 14 12 -22 17 -17 26 25 6 31 -6 45 -20 22 -3 -5
-15 -10 -26 -10 -18 0 -20 4 -14 33 10 44 13 47 40 47 14 0 29 -9 35 -20 14
-27 27 -25 32 5 l5 25 -81 0 c-46 0 -75 -4 -68 -8z"/>
<path d="M2290 605 c0 -14 5 -25 10 -25 6 0 10 4 10 10 0 11 39 34 47 27 8 -8
-28 -160 -43 -184 -14 -22 -13 -23 19 -23 30 0 34 3 30 23 -2 12 4 58 14 102
20 85 37 101 60 55 l12 -24 10 28 c6 15 11 29 11 32 0 2 -40 4 -90 4 -89 0
-90 0 -90 -25z"/>
<path d="M2718 622 c10 -7 9 -26 -7 -96 -10 -47 -24 -93 -31 -101 -11 -13 -2
-15 64 -15 73 0 76 1 82 25 9 35 -3 44 -22 17 -10 -14 -26 -22 -45 -22 -31 0
-33 6 -23 59 7 35 36 43 53 14 12 -22 17 -17 26 25 6 31 -6 45 -20 22 -3 -5
-15 -10 -26 -10 -18 0 -20 4 -14 33 10 44 13 47 40 47 14 0 29 -9 35 -20 14
-27 27 -25 32 5 l5 25 -81 0 c-46 0 -75 -4 -68 -8z"/>
<path d="M2927 611 c5 -21 -22 -153 -38 -183 -8 -16 -6 -18 22 -18 25 0 29 3
21 13 -8 9 -6 33 7 88 l17 74 8 -72 c6 -51 12 -73 21 -73 8 0 32 30 54 68 23
37 41 64 41 60 0 -25 -24 -117 -36 -135 -14 -22 -13 -23 20 -23 29 0 33 3 29
19 -6 22 25 170 40 189 7 9 2 12 -19 12 -25 0 -34 -9 -69 -69 -41 -73 -54 -75
-55 -11 0 62 -10 80 -40 80 -23 0 -27 -4 -23 -19z"/>
<path d="M2070 565 l0 -45 -46 0 c-59 0 -55 -24 4 -28 l42 -3 0 -45 c0 -32 4
-44 15 -44 11 0 15 12 15 45 l0 45 40 0 c29 0 40 4 40 15 0 11 -11 15 -40 15
l-40 0 0 45 c0 33 -4 45 -15 45 -11 0 -15 -12 -15 -45z"/>
<path d="M4497 563 l-37 -37 -35 34 c-23 23 -38 31 -45 24 -7 -7 2 -21 25 -44
l35 -34 -36 -37 c-47 -48 -27 -65 22 -18 l34 33 33 -32 c31 -31 57 -41 57 -24
0 5 -13 21 -30 37 -16 16 -30 33 -30 39 0 5 14 25 32 43 21 22 29 36 22 43 -6
6 -22 -3 -47 -27z"/>
<path d="M1120 540 c0 -6 40 -10 100 -10 60 0 100 4 100 10 0 6 -40 10 -100
10 -60 0 -100 -4 -100 -10z"/>
<path d="M3662 508 c3 -9 35 -14 101 -16 82 -2 97 0 97 13 0 12 -17 15 -101
15 -76 0 -100 -3 -97 -12z"/>
<path d="M1127 483 c-19 -18 1 -23 93 -23 82 0 100 3 100 15 0 12 -17 15 -93
15 -52 0 -97 -3 -100 -7z"/>
</g>
</svg>
