<?xml version="1.0" standalone="no"?>
<!DOCTYPE svg PUBLIC "-//W3C//DTD SVG 20010904//EN"
 "http://www.w3.org/TR/2001/REC-SVG-20010904/DTD/svg10.dtd">
<svg version="1.0" xmlns="http://www.w3.org/2000/svg"
 width="339.000000pt" height="83.000000pt" viewBox="0 0 339.000000 83.000000"
 preserveAspectRatio="xMidYMid meet">

<g transform="translate(0.000000,83.000000) scale(0.100000,-0.100000)"
fill="#000000" stroke="none">
<path d="M2171 529 c-84 -51 -82 -218 4 -275 32 -21 47 -9 16 13 -31 21 -51
72 -51 127 0 57 12 88 46 120 36 32 28 41 -15 15z"/>
<path d="M3127 543 c-4 -3 9 -20 28 -37 57 -54 57 -175 -1 -233 -32 -32 -22
-43 14 -16 40 30 57 70 57 139 0 48 -5 68 -25 97 -24 35 -62 61 -73 50z"/>
<path d="M465 531 c-66 -28 -111 -164 -67 -204 11 -10 36 -17 61 -17 34 0 43
4 50 23 13 32 2 42 -20 18 -24 -26 -55 -27 -68 -3 -10 19 -1 85 16 117 28 51
83 71 83 30 0 -8 7 -15 15 -15 9 0 15 9 15 24 0 32 -41 45 -85 27z"/>
<path d="M180 505 c0 -14 5 -25 10 -25 6 0 10 4 10 10 0 11 39 34 47 27 8 -8
-28 -160 -43 -184 -14 -22 -13 -23 19 -23 30 0 34 3 30 23 -2 12 4 58 14 102
20 85 37 101 60 55 l12 -24 10 28 c6 15 11 29 11 32 0 2 -40 4 -90 4 -89 0
-90 0 -90 -25z"/>
<path d="M608 522 c10 -7 9 -26 -7 -96 -10 -47 -24 -93 -31 -101 -11 -13 -2
-15 64 -15 73 0 76 1 82 25 9 35 -3 44 -22 17 -10 -14 -26 -22 -45 -22 -31 0
-33 6 -23 59 7 35 36 43 53 14 12 -22 17 -17 26 25 6 31 -6 45 -20 22 -3 -5
-15 -10 -26 -10 -18 0 -20 4 -14 33 10 44 13 47 40 47 14 0 29 -9 35 -20 14
-27 27 -25 32 5 l5 25 -81 0 c-46 0 -75 -4 -68 -8z"/>
<path d="M817 511 c5 -21 -22 -153 -38 -183 -8 -16 -6 -18 22 -18 25 0 29 3
21 13 -8 9 -6 33 7 88 l17 74 8 -72 c6 -51 12 -73 21 -73 8 0 32 30 54 68 23
37 41 64 41 60 0 -25 -24 -117 -36 -135 -14 -22 -13 -23 20 -23 29 0 33 3 29
19 -6 22 25 170 40 189 7 9 2 12 -19 12 -25 0 -34 -9 -69 -69 -41 -73 -54 -75
-55 -11 0 62 -10 80 -40 80 -23 0 -27 -4 -23 -19z"/>
<path d="M1487 508 c-9 -32 -2 -33 30 -8 24 19 28 19 31 6 5 -21 -28 -168 -41
-183 -7 -10 -1 -13 28 -13 29 0 35 3 27 13 -8 9 -6 38 8 101 11 49 22 91 24
94 11 10 36 -9 36 -28 0 -24 15 -27 24 -4 15 40 9 44 -78 44 -78 0 -84 -2 -89
-22z"/>
<path d="M1718 522 c10 -7 9 -26 -7 -96 -10 -47 -24 -93 -31 -101 -11 -13 -7
-15 23 -15 30 0 34 3 30 20 -6 23 25 169 39 188 8 9 1 12 -28 12 -24 0 -34 -3
-26 -8z"/>
<path d="M1847 511 c6 -22 -25 -170 -40 -188 -7 -10 -1 -13 28 -13 31 0 35 2
26 14 -16 19 0 80 22 84 12 2 20 -10 30 -45 12 -41 18 -48 42 -51 26 -3 28 -2
15 13 -21 26 -41 89 -30 93 36 13 53 75 28 100 -7 7 -38 12 -69 12 -51 0 -57
-2 -52 -19z m88 -5 c16 -12 18 -19 10 -43 -8 -22 -17 -29 -44 -31 -28 -3 -32
-1 -27 15 3 10 8 30 12 46 7 30 21 34 49 13z"/>
<path d="M2230 455 c-17 -20 -5 -32 15 -15 19 16 19 5 1 -72 -12 -54 -12 -58
4 -58 13 0 20 11 25 37 4 21 13 50 22 66 11 23 19 28 38 23 20 -5 35 7 35 30
0 11 -49 2 -61 -12 -11 -14 -13 -14 -21 0 -11 20 -42 21 -58 1z"/>
<path d="M2415 439 c-21 -26 -25 -40 -23 -78 3 -40 6 -46 26 -49 13 -2 32 4
42 13 16 14 18 14 23 0 7 -18 38 -20 55 -3 19 19 14 30 -9 17 -24 -12 -24 -21
-3 94 l6 34 -45 1 c-39 2 -49 -2 -72 -29z m75 -16 c0 -35 -36 -96 -53 -90 -16
5 -14 81 3 101 21 27 50 20 50 -11z"/>
<path d="M2572 458 c-18 -18 -14 -32 5 -17 15 13 16 10 10 -33 -4 -27 -9 -59
-13 -73 -5 -19 -2 -25 9 -25 16 0 20 10 32 66 8 39 52 85 60 62 3 -8 2 -34 -4
-58 -11 -49 -6 -70 18 -70 24 0 57 25 43 34 -6 3 -13 2 -17 -4 -13 -21 -23 2
-14 33 23 80 1 115 -53 84 -24 -14 -28 -14 -28 -2 0 18 -31 20 -48 3z"/>
<path d="M2805 439 c-21 -26 -25 -40 -23 -78 3 -40 6 -46 26 -49 13 -2 32 4
43 14 22 20 23 18 8 -25 -13 -36 -45 -54 -72 -39 -12 6 -16 16 -12 29 8 25
-11 24 -25 -2 -16 -30 4 -49 52 -49 67 0 90 37 114 188 l6 39 -45 1 c-39 2
-49 -2 -72 -29z m75 -16 c0 -35 -36 -96 -53 -90 -16 5 -14 81 3 101 21 27 50
20 50 -11z"/>
<path d="M2989 441 c-22 -23 -29 -39 -29 -69 0 -48 17 -64 62 -60 24 2 38 12
55 37 59 88 -14 165 -88 92z m77 -5 c3 -8 0 -32 -6 -55 -17 -63 -70 -79 -70
-20 0 43 26 89 51 89 11 0 22 -6 25 -14z"/>
<path d="M1160 440 c0 -6 40 -10 100 -10 60 0 100 4 100 10 0 6 -40 10 -100
10 -60 0 -100 -4 -100 -10z"/>
<path d="M1160 375 c0 -12 17 -15 101 -15 76 0 100 3 97 13 -3 8 -35 13 -101
15 -82 2 -97 0 -97 -13z"/>
</g>
</svg>
