<?xml version="1.0" standalone="no"?>
<!DOCTYPE svg PUBLIC "-//W3C//DTD SVG 20010904//EN"
 "http://www.w3.org/TR/2001/REC-SVG-20010904/DTD/svg10.dtd">
<svg version="1.0" xmlns="http://www.w3.org/2000/svg"
 width="527.000000pt" height="151.000000pt" viewBox="0 0 527.000000 151.000000"
 preserveAspectRatio="xMidYMid meet">

<g transform="translate(0.000000,151.000000) scale(0.100000,-0.100000)"
fill="#000000" stroke="none">
<path d="M1290 735 l0 -415 45 0 c25 0 45 5 45 10 0 6 -11 10 -25 10 l-25 0 0
399 0 400 28 4 c16 2 9 5 -20 6 l-48 1 0 -415z"/>
<path d="M4100 1141 l25 -7 3 -397 2 -397 -25 0 c-14 0 -25 -4 -25 -10 0 -5
18 -10 40 -10 l40 0 0 415 0 415 -42 -1 c-35 -1 -38 -2 -18 -8z"/>
<path d="M2685 1015 c-33 -58 -63 -105 -67 -105 -5 0 -8 -4 -8 -10 0 -5 16
-10 36 -10 31 0 35 2 25 14 -21 25 4 56 44 56 30 0 35 -3 35 -23 0 -13 -5 -28
-12 -35 -9 -9 -4 -12 26 -12 33 0 37 3 30 18 -6 13 -17 104 -23 200 -2 33 -32
2 -86 -93z m65 5 c0 -38 -2 -40 -29 -40 l-29 0 21 40 c12 22 25 40 30 40 4 0
7 -18 7 -40z"/>
<path d="M2230 1085 c0 -14 5 -25 10 -25 6 0 10 4 10 10 0 11 39 34 47 27 8
-8 -28 -160 -43 -184 -14 -22 -13 -23 19 -23 30 0 34 3 30 23 -2 12 4 58 14
102 20 85 37 101 60 55 l12 -24 10 28 c6 15 11 29 11 32 0 2 -40 4 -90 4 -89
0 -90 0 -90 -25z"/>
<path d="M2458 1102 c10 -7 9 -26 -7 -96 -10 -47 -24 -93 -31 -101 -11 -13 -2
-15 64 -15 73 0 76 1 82 25 9 35 -3 44 -22 17 -10 -14 -26 -22 -45 -22 -31 0
-33 6 -23 59 7 35 36 43 53 14 12 -22 17 -17 26 25 6 31 -6 45 -20 22 -3 -5
-15 -10 -26 -10 -18 0 -20 4 -14 33 10 44 13 47 40 47 14 0 29 -9 35 -20 14
-27 27 -25 32 5 l5 25 -81 0 c-46 0 -75 -4 -68 -8z"/>
<path d="M3117 1058 c2 -13 -2 -47 -10 -75 -14 -52 -14 -53 8 -53 18 0 21 4
17 30 -4 27 -1 30 22 30 28 0 66 31 66 55 0 20 -32 35 -73 35 -30 0 -34 -3
-30 -22z m71 -20 c-3 -23 -48 -41 -48 -20 0 24 14 42 32 42 14 0 19 -6 16 -22z"/>
<path d="M1427 1063 c-4 -3 -7 -152 -7 -330 l0 -323 48 1 c29 1 36 4 20 6
l-28 4 0 315 0 314 25 0 c14 0 25 5 25 10 0 11 -73 14 -83 3z"/>
<path d="M3380 1060 c0 -5 9 -10 20 -10 20 0 20 -7 20 -314 l0 -315 -22 -4
c-13 -2 -4 -5 20 -6 l42 -1 0 330 0 330 -40 0 c-22 0 -40 -4 -40 -10z"/>
<path d="M2827 873 c-4 -3 9 -20 28 -37 57 -54 57 -175 -1 -233 -32 -32 -22
-43 14 -16 40 30 57 70 57 139 0 48 -5 68 -25 97 -24 35 -62 61 -73 50z"/>
<path d="M1577 842 c-36 -38 -53 -113 -37 -171 13 -48 58 -101 86 -101 15 0
12 6 -13 29 -29 26 -35 40 -47 103 -2 9 0 38 5 65 6 36 17 55 41 76 28 23 29
27 12 27 -11 0 -32 -12 -47 -28z"/>
<path d="M1718 849 c-50 -26 -60 -43 -19 -34 l31 7 0 -65 c0 -78 -6 -97 -31
-97 -10 0 -19 -4 -19 -10 0 -6 27 -10 60 -10 33 0 60 4 60 10 0 6 -9 10 -20
10 -18 0 -20 8 -22 104 l-3 104 -37 -19z"/>
<path d="M2960 860 c0 -6 73 -10 200 -10 127 0 200 4 200 10 0 6 -73 10 -200
10 -127 0 -200 -4 -200 -10z"/>
<path d="M3958 849 c-50 -26 -60 -43 -19 -34 l31 7 0 -65 c0 -78 -6 -97 -31
-97 -10 0 -19 -4 -19 -10 0 -6 27 -10 60 -10 33 0 60 4 60 10 0 6 -9 10 -20
10 -18 0 -20 8 -22 104 l-3 104 -37 -19z"/>
<path d="M4638 847 c-43 -25 -50 -40 -13 -31 l25 6 0 -81 c0 -74 -2 -81 -20
-81 -11 0 -20 -4 -20 -10 0 -6 27 -10 60 -10 58 0 84 15 38 22 -22 3 -23 9
-28 105 l-5 101 -37 -21z"/>
<path d="M4804 847 c-24 -21 -28 -33 -32 -88 -3 -54 -1 -68 18 -91 29 -37 71
-38 99 -2 28 35 30 142 4 172 -29 33 -57 36 -89 9z m63 -28 c28 -53 10 -159
-26 -159 -25 0 -34 29 -34 103 1 83 32 112 60 56z"/>
<path d="M4984 847 c-24 -21 -28 -33 -32 -88 -3 -54 -1 -68 18 -91 29 -37 71
-38 99 -2 28 35 30 142 4 172 -29 33 -57 36 -89 9z m63 -28 c28 -53 10 -159
-26 -159 -25 0 -34 29 -34 103 1 83 32 112 60 56z"/>
<path d="M167 838 c-9 -32 -2 -33 30 -8 24 19 28 19 31 6 5 -21 -28 -168 -41
-183 -7 -10 -1 -13 28 -13 29 0 35 3 27 13 -8 9 -6 38 8 101 11 49 22 91 24
94 11 10 36 -9 36 -28 0 -24 15 -27 24 -4 15 40 9 44 -78 44 -78 0 -84 -2 -89
-22z"/>
<path d="M397 841 c6 -22 -25 -170 -40 -188 -7 -10 7 -13 66 -13 74 0 75 0 80
28 7 36 1 40 -26 14 -22 -21 -77 -31 -77 -14 0 4 5 24 11 45 11 40 41 52 53
20 6 -15 8 -15 16 -3 6 8 10 26 10 40 0 19 -3 21 -12 12 -7 -7 -22 -12 -34
-12 -21 0 -21 2 -12 40 9 35 14 40 40 40 21 0 31 -6 35 -20 6 -24 19 -26 27
-4 12 31 5 34 -68 34 -68 0 -74 -2 -69 -19z"/>
<path d="M598 852 c10 -7 9 -26 -7 -96 -10 -47 -24 -93 -31 -101 -11 -13 -8
-15 19 -15 20 0 30 4 26 10 -4 6 -1 42 6 81 12 69 28 77 29 14 0 -43 11 -75
24 -75 6 0 23 21 38 48 53 93 59 95 41 17 -8 -38 -20 -76 -25 -82 -8 -10 -2
-13 27 -13 29 0 35 3 27 13 -13 15 22 187 41 199 7 4 -2 8 -20 8 -29 0 -36 -6
-75 -72 l-43 -72 -7 39 c-4 22 -7 55 -7 73 -1 30 -3 32 -38 32 -24 0 -33 -3
-25 -8z"/>
<path d="M2000 795 l0 -45 -40 0 c-29 0 -40 -4 -40 -15 0 -11 11 -15 39 -15
40 0 40 0 43 -42 4 -59 28 -63 28 -4 l0 46 45 0 c33 0 45 4 45 15 0 11 -12 15
-45 15 l-45 0 0 45 c0 33 -4 45 -15 45 -11 0 -15 -12 -15 -45z"/>
<path d="M2988 823 c-10 -2 -18 -11 -18 -19 0 -17 5 -17 30 -2 15 10 22 10 31
1 15 -15 -4 -43 -30 -44 -9 0 -4 -5 12 -11 16 -6 27 -17 27 -28 0 -23 -28 -34
-47 -19 -15 13 -28 6 -18 -10 9 -15 68 -14 83 1 17 17 15 47 -3 54 -12 5 -12
9 1 29 13 20 13 24 -1 39 -16 16 -33 18 -67 9z"/>
<path d="M3148 814 c-39 -21 -54 -88 -27 -120 14 -17 61 -18 77 -2 29 29 7 78
-35 78 -33 0 -29 19 7 34 17 7 27 15 23 19 -9 9 -14 9 -45 -9z m35 -78 c3 -8
-1 -22 -8 -33 -13 -17 -15 -17 -31 -1 -9 9 -14 24 -11 32 8 20 43 21 50 2z"/>
<path d="M3260 810 c-13 -13 -20 -33 -20 -56 0 -51 15 -74 50 -74 35 0 50 23
50 79 0 64 -41 90 -80 51z m56 -36 c7 -40 -9 -88 -29 -82 -13 5 -22 80 -13
104 11 27 35 15 42 -22z"/>
<path d="M4417 793 l-37 -37 -35 34 c-23 23 -38 31 -45 24 -7 -7 2 -21 25 -44
l35 -34 -36 -37 c-47 -48 -27 -65 22 -18 l34 33 33 -32 c31 -31 57 -41 57 -24
0 5 -13 21 -30 37 -16 16 -30 33 -30 39 0 5 14 25 32 43 21 22 29 36 22 43 -6
6 -22 -3 -47 -27z"/>
<path d="M950 770 c0 -6 40 -10 100 -10 60 0 100 4 100 10 0 6 -40 10 -100 10
-60 0 -100 -4 -100 -10z"/>
<path d="M3592 738 c3 -9 35 -14 101 -16 82 -2 97 0 97 13 0 12 -17 15 -101
15 -76 0 -100 -3 -97 -12z"/>
<path d="M2220 730 c0 -6 108 -10 305 -10 197 0 305 4 305 10 0 6 -108 10
-305 10 -197 0 -305 -4 -305 -10z"/>
<path d="M950 705 c0 -12 17 -15 101 -15 76 0 100 3 97 13 -3 8 -35 13 -101
15 -82 2 -97 0 -97 -13z"/>
<path d="M2318 629 c-50 -26 -60 -43 -19 -34 l31 7 0 -65 c0 -78 -6 -97 -31
-97 -10 0 -19 -4 -19 -10 0 -6 27 -10 60 -10 33 0 60 4 60 10 0 6 -9 10 -20
10 -18 0 -20 8 -22 104 l-3 104 -37 -19z"/>
<path d="M2490 637 c-47 -24 -61 -136 -24 -194 21 -33 78 -32 100 2 38 59 26
172 -22 194 -30 13 -24 13 -54 -2z m50 -26 c11 -21 14 -129 4 -155 -10 -25
-43 -19 -54 10 -15 39 -12 117 6 142 19 27 30 28 44 3z"/>
<path d="M2670 637 c-47 -24 -61 -136 -24 -194 21 -33 78 -32 100 2 38 59 26
172 -22 194 -30 13 -24 13 -54 -2z m50 -26 c11 -21 14 -129 4 -155 -10 -25
-43 -19 -54 10 -15 39 -12 117 6 142 19 27 30 28 44 3z"/>
</g>
</svg>
